<svg width="205" height="57" viewBox="0 0 205 57" fill="none" xmlns="http://www.w3.org/2000/svg">
<g filter="url(#filter0_d_309_3336)">
<path d="M42.0762 0C28.6864 3.22956 29.0113 16.1478 30.8474 22.2032C30.8474 12.5145 35.9323 6.95252 38.4748 5.3826C33.8985 8.43273 33.7431 15.1759 34.2375 18.1663C41.5256 14.9367 42.5 4.70977 42.0762 0Z" fill="url(#paint0_linear_309_3336)"/>
<path d="M20.3271 10.8075C28.5881 10.2452 30.7133 18.1749 30.7433 22.2101C29.0096 16.3088 25.0965 13.8816 23.3568 13.4057C26.5284 14.399 27.8242 18.4769 28.0757 20.3916C23.3158 19.8013 20.9267 13.7563 20.3271 10.8075Z" fill="url(#paint1_linear_309_3336)"/>
<path d="M9.51074 37.0186C11.0141 37.8917 12.6306 38.723 14.3467 39.4805C12.6954 45.3685 10.8415 48.9633 10.2969 50.001H5C7.01799 43.8172 8.34327 40.8457 9.51074 37.0186ZM29.4219 43.293C30.7811 43.3891 32.1644 43.4224 33.5684 43.3809C33.3506 45.4912 33.5844 47.7124 34.4492 50.001H29.1523C29.6584 48.4208 29.9153 46.0382 29.4219 43.293ZM52.1846 38.3408C52.957 43.4336 53.9063 47.917 55 50.001H49.2793C48.651 47.7839 47.7885 44.3531 47.0527 40.6719C48.7535 40.0252 50.4659 39.2524 52.1846 38.3408ZM16.6523 19.0508C20.9602 27.5732 32.7965 39.5045 45.6777 19.0508H50.127C50.3855 22.849 50.8981 28.639 51.6191 34.2666C49.8509 35.2776 48.0933 36.1235 46.3525 36.8213C45.7385 33.0205 45.3859 29.3021 45.6777 26.6758C42.1321 28.8206 36.7069 33.5084 34.4883 39.4951C32.3375 39.619 30.243 39.55 28.2188 39.3281C26.502 35.3499 23.044 31.0848 16.6523 27.5732C16.3119 30.5592 15.836 33.2706 15.2969 35.6963C13.5962 34.9158 12.0072 34.0603 10.5488 33.168C11.3222 29.9062 12.0979 25.6463 13.0508 19.0508H16.6523Z" fill="url(#paint2_linear_309_3336)"/>
<path d="M9.51074 37.0186L9.8966 36.3541L9.05859 35.8675L8.77584 36.7944L9.51074 37.0186ZM14.3467 39.4805L15.0865 39.6879L15.2663 39.0466L14.657 38.7776L14.3467 39.4805ZM10.2969 50.001V50.7693H10.7614L10.9772 50.358L10.2969 50.001ZM5 50.001L4.26957 49.7626L3.94104 50.7693H5V50.001ZM29.4219 43.293L29.4761 42.5265L28.491 42.4569L28.6657 43.4289L29.4219 43.293ZM33.5684 43.3809L34.3326 43.4597L34.4227 42.5869L33.5456 42.6129L33.5684 43.3809ZM34.4492 50.001V50.7693H35.5609L35.168 49.7294L34.4492 50.001ZM29.1523 50.001L28.4206 49.7667L28.0995 50.7693H29.1523V50.001ZM52.1846 38.3408L52.9442 38.2256L52.7817 37.1543L51.8245 37.6621L52.1846 38.3408ZM55 50.001V50.7693H56.271L55.6803 49.6439L55 50.001ZM49.2793 50.001L48.5401 50.2105L48.6984 50.7693H49.2793V50.001ZM47.0527 40.6719L46.7796 39.9537L46.1719 40.1848L46.2993 40.8225L47.0527 40.6719ZM16.6523 19.0508L17.3381 18.7042L17.1249 18.2824H16.6523V19.0508ZM45.6777 19.0508V18.2824H45.2536L45.0276 18.6413L45.6777 19.0508ZM50.127 19.0508L50.8935 18.9986L50.8448 18.2824H50.127V19.0508ZM51.6191 34.2666L52.0005 34.9336L52.4465 34.6786L52.3813 34.169L51.6191 34.2666ZM46.3525 36.8213L45.594 36.9438L45.7472 37.8917L46.6384 37.5345L46.3525 36.8213ZM45.6777 26.6758L46.4414 26.7606L46.6135 25.2118L45.2801 26.0184L45.6777 26.6758ZM34.4883 39.4951L34.5325 40.2622L35.0341 40.2333L35.2087 39.7621L34.4883 39.4951ZM28.2188 39.3281L27.5133 39.6326L27.6905 40.0432L28.135 40.0919L28.2188 39.3281ZM16.6523 27.5732L17.0223 26.8998L16.0187 26.3484L15.8889 27.4862L16.6523 27.5732ZM15.2969 35.6963L14.9764 36.3946L15.8406 36.7912L16.0469 35.863L15.2969 35.6963ZM10.5488 33.168L9.80121 32.9907L9.67272 33.5327L10.1478 33.8234L10.5488 33.168ZM13.0508 19.0508V18.2824H12.3855L12.2903 18.9409L13.0508 19.0508ZM9.51074 37.0186L9.12488 37.683C10.6519 38.5698 12.2936 39.414 14.0364 40.1834L14.3467 39.4805L14.657 38.7776C12.9677 38.0319 11.3764 37.2135 9.8966 36.3541L9.51074 37.0186ZM14.3467 39.4805L13.6069 39.273C11.9747 45.093 10.1453 48.6363 9.61654 49.6439L10.2969 50.001L10.9772 50.358C11.5376 49.2903 13.4162 45.6439 15.0865 39.6879L14.3467 39.4805ZM10.2969 50.001V49.2326H5V50.001V50.7693H10.2969V50.001ZM5 50.001L5.73043 50.2393C6.735 47.161 7.56693 44.8827 8.29589 42.89C9.02424 40.8989 9.65478 39.1797 10.2456 37.2427L9.51074 37.0186L8.77584 36.7944C8.19922 38.6846 7.58339 40.3647 6.85274 42.3621C6.12269 44.3578 5.28298 46.6572 4.26957 49.7626L5 50.001ZM29.4219 43.293L29.3677 44.0594C30.751 44.1572 32.16 44.1912 33.5911 44.1489L33.5684 43.3809L33.5456 42.6129C32.1687 42.6536 30.8112 42.6209 29.4761 42.5265L29.4219 43.293ZM33.5684 43.3809L32.8041 43.302C32.5745 45.5271 32.8221 47.8686 33.7305 50.2726L34.4492 50.001L35.168 49.7294C34.3468 47.5562 34.1267 45.4553 34.3326 43.4597L33.5684 43.3809ZM34.4492 50.001V49.2326H29.1523V50.001V50.7693H34.4492V50.001ZM29.1523 50.001L29.8841 50.2353C30.431 48.5274 30.6922 46.0172 30.1781 43.157L29.4219 43.293L28.6657 43.4289C29.1384 46.0592 28.8857 48.3141 28.4206 49.7667L29.1523 50.001ZM52.1846 38.3408L51.4249 38.456C51.8128 41.0132 52.2467 43.4289 52.7236 45.4737C53.1965 47.5016 53.7247 49.2243 54.3197 50.358L55 50.001L55.6803 49.6439C55.1816 48.6937 54.6883 47.1327 54.2201 45.1247C53.7558 43.1337 53.3288 40.7613 52.9442 38.2256L52.1846 38.3408ZM55 50.001V49.2326H49.2793V50.001V50.7693H55V50.001ZM49.2793 50.001L50.0185 49.7915C49.3955 47.593 48.5378 44.1819 47.8062 40.5213L47.0527 40.6719L46.2993 40.8225C47.0392 44.5244 47.9065 47.9748 48.5401 50.2105L49.2793 50.001ZM47.0527 40.6719L47.3258 41.39C49.0565 40.7319 50.798 39.946 52.5446 39.0196L52.1846 38.3408L51.8245 37.6621C50.1338 38.5589 48.4504 39.3184 46.7796 39.9537L47.0527 40.6719ZM16.6523 19.0508L15.9666 19.3974C18.1526 23.7219 22.318 29.0728 27.7347 30.6544C30.4831 31.4569 33.5142 31.2748 36.681 29.5532C39.8253 27.8439 43.0668 24.6384 46.3279 19.4602L45.6777 19.0508L45.0276 18.6413C41.848 23.6901 38.7796 26.6633 35.9471 28.2031C33.1371 29.7307 30.5247 29.8682 28.1654 29.1793C23.3666 27.7781 19.46 22.9021 17.3381 18.7042L16.6523 19.0508ZM45.6777 19.0508V19.8191H50.127V19.0508V18.2824H45.6777V19.0508ZM50.127 19.0508L49.3604 19.103C49.6198 22.9136 50.1338 28.719 50.857 34.3642L51.6191 34.2666L52.3813 34.169C51.6625 28.5589 51.1513 22.7843 50.8935 18.9986L50.127 19.0508ZM51.6191 34.2666L51.2378 33.5996C49.4998 34.5933 47.7741 35.4237 46.0667 36.1081L46.3525 36.8213L46.6384 37.5345C48.4126 36.8233 50.202 35.9619 52.0005 34.9336L51.6191 34.2666ZM46.3525 36.8213L47.111 36.6987C46.4985 32.9073 46.1618 29.2765 46.4414 26.7606L45.6777 26.6758L44.9141 26.5909C44.6099 29.3277 44.9785 33.1338 45.594 36.9438L46.3525 36.8213ZM45.6777 26.6758L45.2801 26.0184C41.6554 28.2109 36.07 33.0157 33.7678 39.2281L34.4883 39.4951L35.2087 39.7621C37.3437 34.001 42.6087 29.4302 46.0754 27.3332L45.6777 26.6758ZM34.4883 39.4951L34.4441 38.728C32.3384 38.8493 30.2867 38.7818 28.3025 38.5644L28.2188 39.3281L28.135 40.0919C30.1993 40.3181 32.3366 40.3886 34.5325 40.2622L34.4883 39.4951ZM28.2188 39.3281L28.9242 39.0237C27.1333 34.8737 23.5487 30.4854 17.0223 26.8998L16.6523 27.5732L16.2824 28.2466C22.5393 31.6841 25.8707 35.8262 27.5133 39.6326L28.2188 39.3281ZM16.6523 27.5732L15.8889 27.4862C15.5517 30.444 15.0805 33.1289 14.5468 35.5296L15.2969 35.6963L16.0469 35.863C16.5916 33.4124 17.0721 30.6743 17.4157 27.6603L16.6523 27.5732ZM15.2969 35.6963L15.6173 34.998C13.9451 34.2306 12.3829 33.3894 10.9498 32.5126L10.5488 33.168L10.1478 33.8234C11.6315 34.7311 13.2473 35.6011 14.9764 36.3946L15.2969 35.6963ZM10.5488 33.168L11.2964 33.3452C12.0775 30.0511 12.857 25.7655 13.8112 19.1606L13.0508 19.0508L12.2903 18.9409C11.3388 25.5272 10.5669 29.7613 9.80121 32.9907L10.5488 33.168ZM13.0508 19.0508V19.8191H16.6523V19.0508V18.2824H13.0508V19.0508Z" fill="url(#paint3_linear_309_3336)"/>
</g>
<path d="M68.5705 41H62.4685V28.94H68.5705C72.5485 28.94 75.0685 31.154 75.0685 34.97C75.0685 38.786 72.5485 41 68.5705 41ZM68.5705 31.982H65.8525V37.958H68.5705C70.7125 37.958 71.4505 37.688 71.4505 34.97C71.4505 32.252 70.7125 31.982 68.5705 31.982ZM79.3478 31.1H75.9638V28.94H79.3478V31.1ZM79.3478 41H75.9638V31.928H79.3478V41ZM85.4867 41.18C82.4087 41.18 80.2487 39.866 80.2487 36.464C80.2487 33.512 82.3907 31.748 85.4147 31.748C88.5467 31.748 90.5447 33.314 90.5447 36.23C90.5447 36.536 90.5267 36.77 90.4907 37.094H83.3807C83.4347 38.192 83.9207 38.498 85.3607 38.498C86.7287 38.498 87.0887 38.264 87.0887 37.724V37.526H90.4727V37.742C90.4727 39.758 88.5467 41.18 85.4867 41.18ZM85.3427 34.34C84.1007 34.34 83.5787 34.61 83.4347 35.384H87.2687C87.1427 34.61 86.6027 34.34 85.3427 34.34ZM98.2362 41H95.8602C93.5922 41 92.2422 39.902 92.2422 37.544V34.7H90.9102V31.928H92.2422V30.362H95.6262V31.928H98.2362V34.7H95.6262V37.058C95.6262 37.778 95.8422 37.958 96.6162 37.958H98.2362V41ZM102.428 31.1H99.0439V28.94H102.428V31.1ZM102.428 41H99.0439V31.928H102.428V41ZM108.603 41.18C105.381 41.18 103.329 39.398 103.329 36.464C103.329 33.512 105.381 31.748 108.603 31.748C111.699 31.748 113.679 33.332 113.679 35.762V36.05H110.313V35.906C110.313 34.97 109.629 34.772 108.531 34.772C107.289 34.772 106.695 35.042 106.695 36.464C106.695 37.868 107.289 38.138 108.531 38.138C109.629 38.138 110.313 37.958 110.313 37.022V36.86H113.679V37.166C113.679 39.578 111.699 41.18 108.603 41.18ZM117.967 31.1H114.583V28.94H117.967V31.1ZM117.967 41H114.583V31.928H117.967V41ZM133.137 41H129.753V31.928H132.921V34.682H133.101C133.299 33.17 134.289 31.748 136.719 31.748C139.167 31.748 140.319 33.224 140.319 35.186V41H136.935V36.428C136.935 35.168 136.467 34.772 134.991 34.772C133.497 34.772 133.137 35.15 133.137 36.32V41Z" fill="#98D300"/>
<path d="M144.703 41H141.319V28.94H145.909L148.123 33.944L149.311 37.058H149.545L150.679 33.944L152.785 28.94H157.375V41H153.991V36.014L154.117 33.998H153.883L153.199 36.014L151.399 40.28H147.295L145.495 36.014L144.811 33.998H144.577L144.703 36.014V41ZM163.516 41.18C160.438 41.18 158.278 39.866 158.278 36.464C158.278 33.512 160.42 31.748 163.444 31.748C166.576 31.748 168.574 33.314 168.574 36.23C168.574 36.536 168.556 36.77 168.52 37.094H161.41C161.464 38.192 161.95 38.498 163.39 38.498C164.758 38.498 165.118 38.264 165.118 37.724V37.526H168.502V37.742C168.502 39.758 166.576 41.18 163.516 41.18ZM163.372 34.34C162.13 34.34 161.608 34.61 161.464 35.384H165.298C165.172 34.61 164.632 34.34 163.372 34.34ZM173.511 39.992C170.811 39.992 169.299 38.444 169.299 35.852C169.299 33.296 170.919 31.748 173.601 31.748C175.437 31.748 176.661 32.486 176.913 34.052H177.093V31.928H180.261V39.47C180.261 42.71 178.335 44.24 174.843 44.24C171.675 44.24 169.839 42.908 169.839 40.532H173.223C173.223 41.27 173.313 41.45 175.077 41.45C176.535 41.45 176.877 41.234 176.877 39.704V37.796H176.697C176.463 39.11 175.509 39.992 173.511 39.992ZM172.719 35.852C172.719 36.752 173.151 37.094 174.735 37.094C176.247 37.094 176.877 36.914 176.877 35.96V35.834C176.877 34.862 176.247 34.664 174.735 34.664C173.151 34.664 172.719 34.97 172.719 35.852ZM184.729 41H181.345V28.94H184.729V34.682H184.909C185.197 33.152 186.205 31.748 188.527 31.748C190.939 31.748 192.091 33.278 192.091 35.294V41H188.707V36.428C188.707 35.168 188.221 34.772 186.673 34.772C185.107 34.772 184.729 35.15 184.729 36.32V41Z" fill="#044810"/>
<path d="M64.5788 46.6174H65.4068V50.8174H64.7768L62.9768 48.2494V50.8174H62.1488V46.6174H62.7788L64.5788 49.1794V46.6174ZM68.1299 47.8174H68.9039V50.8174H68.1299V50.4814C67.9419 50.7614 67.6439 50.9014 67.2359 50.9014C66.9079 50.9014 66.6359 50.7914 66.4199 50.5714C66.2079 50.3514 66.1019 50.0474 66.1019 49.6594V47.8174H66.8759V49.5634C66.8759 49.7634 66.9299 49.9174 67.0379 50.0254C67.1459 50.1294 67.2899 50.1814 67.4699 50.1814C67.6699 50.1814 67.8299 50.1194 67.9499 49.9954C68.0699 49.8714 68.1299 49.6854 68.1299 49.4374V47.8174ZM71.3288 48.5614H70.6508V49.8094C70.6508 49.9134 70.6768 49.9894 70.7288 50.0374C70.7808 50.0854 70.8568 50.1134 70.9568 50.1214C71.0568 50.1254 71.1808 50.1234 71.3288 50.1154V50.8174C70.7968 50.8774 70.4208 50.8274 70.2008 50.6674C69.9848 50.5074 69.8768 50.2214 69.8768 49.8094V48.5614H69.3548V47.8174H69.8768V47.2114L70.6508 46.9774V47.8174H71.3288V48.5614ZM72.6954 48.3334C72.7674 48.1414 72.8854 47.9974 73.0494 47.9014C73.2174 47.8054 73.4034 47.7574 73.6074 47.7574V48.6214C73.3714 48.5934 73.1594 48.6414 72.9714 48.7654C72.7874 48.8894 72.6954 49.0954 72.6954 49.3834V50.8174H71.9214V47.8174H72.6954V48.3334ZM74.4441 47.4574C74.3161 47.4574 74.2041 47.4114 74.1081 47.3194C74.0161 47.2234 73.9701 47.1114 73.9701 46.9834C73.9701 46.8554 74.0161 46.7434 74.1081 46.6474C74.2041 46.5514 74.3161 46.5034 74.4441 46.5034C74.5761 46.5034 74.6881 46.5514 74.7801 46.6474C74.8761 46.7434 74.9241 46.8554 74.9241 46.9834C74.9241 47.1114 74.8761 47.2234 74.7801 47.3194C74.6881 47.4114 74.5761 47.4574 74.4441 47.4574ZM74.0601 50.8174V47.8174H74.8341V50.8174H74.0601ZM77.2105 47.7334C77.5385 47.7334 77.8085 47.8434 78.0205 48.0634C78.2365 48.2834 78.3445 48.5874 78.3445 48.9754V50.8174H77.5705V49.0714C77.5705 48.8714 77.5165 48.7194 77.4085 48.6154C77.3005 48.5074 77.1565 48.4534 76.9765 48.4534C76.7765 48.4534 76.6165 48.5154 76.4965 48.6394C76.3765 48.7634 76.3165 48.9494 76.3165 49.1974V50.8174H75.5425V46.6174H76.3165V48.1534C76.5045 47.8734 76.8025 47.7334 77.2105 47.7334ZM80.9854 47.8174H81.7594V50.8174H80.9854V50.4814C80.7974 50.7614 80.4994 50.9014 80.0914 50.9014C79.7634 50.9014 79.4914 50.7914 79.2754 50.5714C79.0634 50.3514 78.9574 50.0474 78.9574 49.6594V47.8174H79.7314V49.5634C79.7314 49.7634 79.7854 49.9174 79.8934 50.0254C80.0014 50.1294 80.1454 50.1814 80.3254 50.1814C80.5254 50.1814 80.6854 50.1194 80.8054 49.9954C80.9254 49.8714 80.9854 49.6854 80.9854 49.4374V47.8174ZM84.2143 47.7334C84.6183 47.7334 84.9623 47.8874 85.2463 48.1954C85.5343 48.4994 85.6783 48.8734 85.6783 49.3174C85.6783 49.7614 85.5343 50.1374 85.2463 50.4454C84.9623 50.7494 84.6183 50.9014 84.2143 50.9014C83.7943 50.9014 83.4703 50.7554 83.2423 50.4634V50.8174H82.4683V46.6174H83.2423V48.1714C83.4703 47.8794 83.7943 47.7334 84.2143 47.7334ZM83.4763 49.9294C83.6323 50.0854 83.8303 50.1634 84.0703 50.1634C84.3103 50.1634 84.5083 50.0854 84.6643 49.9294C84.8243 49.7694 84.9043 49.5654 84.9043 49.3174C84.9043 49.0694 84.8243 48.8674 84.6643 48.7114C84.5083 48.5514 84.3103 48.4714 84.0703 48.4714C83.8303 48.4714 83.6323 48.5514 83.4763 48.7114C83.3203 48.8674 83.2423 49.0694 83.2423 49.3174C83.2423 49.5654 83.3203 49.7694 83.4763 49.9294ZM86.2601 49.3774V48.6334H88.5101V49.3774H86.2601ZM89.1934 48.2854L89.6434 46.6174H90.2734L90.0334 48.2854H89.1934ZM90.3034 48.2854L90.7534 46.6174H91.3834L91.1434 48.2854H90.3034ZM95.3908 46.6174L93.9508 49.1794V50.8174H93.1288V49.1794L91.6948 46.6174H92.6308L93.5428 48.3694L94.4548 46.6174H95.3908ZM97.7157 50.4454C97.4077 50.7494 97.0317 50.9014 96.5877 50.9014C96.1437 50.9014 95.7677 50.7494 95.4597 50.4454C95.1557 50.1374 95.0037 49.7614 95.0037 49.3174C95.0037 48.8734 95.1557 48.4994 95.4597 48.1954C95.7677 47.8874 96.1437 47.7334 96.5877 47.7334C97.0317 47.7334 97.4077 47.8874 97.7157 48.1954C98.0237 48.4994 98.1777 48.8734 98.1777 49.3174C98.1777 49.7614 98.0237 50.1374 97.7157 50.4454ZM96.0057 49.9114C96.1617 50.0674 96.3557 50.1454 96.5877 50.1454C96.8197 50.1454 97.0137 50.0674 97.1697 49.9114C97.3257 49.7554 97.4037 49.5574 97.4037 49.3174C97.4037 49.0774 97.3257 48.8794 97.1697 48.7234C97.0137 48.5674 96.8197 48.4894 96.5877 48.4894C96.3557 48.4894 96.1617 48.5674 96.0057 48.7234C95.8537 48.8794 95.7777 49.0774 95.7777 49.3174C95.7777 49.5574 95.8537 49.7554 96.0057 49.9114ZM100.702 47.8174H101.476V50.8174H100.702V50.4814C100.514 50.7614 100.216 50.9014 99.8082 50.9014C99.4802 50.9014 99.2082 50.7914 98.9922 50.5714C98.7802 50.3514 98.6742 50.0474 98.6742 49.6594V47.8174H99.4482V49.5634C99.4482 49.7634 99.5022 49.9174 99.6102 50.0254C99.7182 50.1294 99.8622 50.1814 100.042 50.1814C100.242 50.1814 100.402 50.1194 100.522 49.9954C100.642 49.8714 100.702 49.6854 100.702 49.4374V47.8174ZM102.959 48.3334C103.031 48.1414 103.149 47.9974 103.313 47.9014C103.481 47.8054 103.667 47.7574 103.871 47.7574V48.6214C103.635 48.5934 103.423 48.6414 103.235 48.7654C103.051 48.8894 102.959 49.0954 102.959 49.3834V50.8174H102.185V47.8174H102.959V48.3334ZM108.638 46.6174V47.4094H107.504V50.8174H106.676V47.4094H105.548V46.6174H108.638ZM109.457 48.3334C109.529 48.1414 109.647 47.9974 109.811 47.9014C109.979 47.8054 110.165 47.7574 110.369 47.7574V48.6214C110.133 48.5934 109.921 48.6414 109.733 48.7654C109.549 48.8894 109.457 49.0954 109.457 49.3834V50.8174H108.683V47.8174H109.457V48.3334ZM112.802 47.8174H113.576V50.8174H112.802V50.4814C112.614 50.7614 112.316 50.9014 111.908 50.9014C111.58 50.9014 111.308 50.7914 111.092 50.5714C110.88 50.3514 110.774 50.0474 110.774 49.6594V47.8174H111.548V49.5634C111.548 49.7634 111.602 49.9174 111.71 50.0254C111.818 50.1294 111.962 50.1814 112.142 50.1814C112.342 50.1814 112.502 50.1194 112.622 49.9954C112.742 49.8714 112.802 49.6854 112.802 49.4374V47.8174ZM114.975 48.6694C114.975 48.7494 115.027 48.8154 115.131 48.8674C115.239 48.9154 115.369 48.9594 115.521 48.9994C115.673 49.0354 115.825 49.0834 115.977 49.1434C116.129 49.1994 116.257 49.2954 116.361 49.4314C116.469 49.5674 116.523 49.7374 116.523 49.9414C116.523 50.2494 116.407 50.4874 116.175 50.6554C115.947 50.8194 115.661 50.9014 115.317 50.9014C114.701 50.9014 114.281 50.6634 114.057 50.1874L114.729 49.8094C114.817 50.0694 115.013 50.1994 115.317 50.1994C115.593 50.1994 115.731 50.1134 115.731 49.9414C115.731 49.8614 115.677 49.7974 115.569 49.7494C115.465 49.6974 115.337 49.6514 115.185 49.6114C115.033 49.5714 114.881 49.5214 114.729 49.4614C114.577 49.4014 114.447 49.3074 114.339 49.1794C114.235 49.0474 114.183 48.8834 114.183 48.6874C114.183 48.3914 114.291 48.1594 114.507 47.9914C114.727 47.8194 114.999 47.7334 115.323 47.7334C115.567 47.7334 115.789 47.7894 115.989 47.9014C116.189 48.0094 116.347 48.1654 116.463 48.3694L115.803 48.7294C115.707 48.5254 115.547 48.4234 115.323 48.4234C115.223 48.4234 115.139 48.4454 115.071 48.4894C115.007 48.5334 114.975 48.5934 114.975 48.6694ZM118.649 48.5614H117.971V49.8094C117.971 49.9134 117.997 49.9894 118.049 50.0374C118.101 50.0854 118.177 50.1134 118.277 50.1214C118.377 50.1254 118.501 50.1234 118.649 50.1154V50.8174C118.117 50.8774 117.741 50.8274 117.521 50.6674C117.305 50.5074 117.197 50.2214 117.197 49.8094V48.5614H116.675V47.8174H117.197V47.2114L117.971 46.9774V47.8174H118.649V48.5614ZM119.755 49.6354C119.859 50.0114 120.141 50.1994 120.601 50.1994C120.897 50.1994 121.121 50.0994 121.273 49.8994L121.897 50.2594C121.601 50.6874 121.165 50.9014 120.589 50.9014C120.093 50.9014 119.695 50.7514 119.395 50.4514C119.095 50.1514 118.945 49.7734 118.945 49.3174C118.945 48.8654 119.093 48.4894 119.389 48.1894C119.685 47.8854 120.065 47.7334 120.529 47.7334C120.969 47.7334 121.331 47.8854 121.615 48.1894C121.903 48.4934 122.047 48.8694 122.047 49.3174C122.047 49.4174 122.037 49.5234 122.017 49.6354H119.755ZM119.743 49.0354H121.273C121.229 48.8314 121.137 48.6794 120.997 48.5794C120.861 48.4794 120.705 48.4294 120.529 48.4294C120.321 48.4294 120.149 48.4834 120.013 48.5914C119.877 48.6954 119.787 48.8434 119.743 49.0354ZM124.838 46.6174H125.612V50.8174H124.838V50.4634C124.61 50.7554 124.286 50.9014 123.866 50.9014C123.462 50.9014 123.116 50.7494 122.828 50.4454C122.544 50.1374 122.402 49.7614 122.402 49.3174C122.402 48.8734 122.544 48.4994 122.828 48.1954C123.116 47.8874 123.462 47.7334 123.866 47.7334C124.286 47.7334 124.61 47.8794 124.838 48.1714V46.6174ZM123.41 49.9294C123.57 50.0854 123.77 50.1634 124.01 50.1634C124.25 50.1634 124.448 50.0854 124.604 49.9294C124.76 49.7694 124.838 49.5654 124.838 49.3174C124.838 49.0694 124.76 48.8674 124.604 48.7114C124.448 48.5514 124.25 48.4714 124.01 48.4714C123.77 48.4714 123.57 48.5514 123.41 48.7114C123.254 48.8674 123.176 49.0694 123.176 49.3174C123.176 49.5654 123.254 49.7694 123.41 49.9294ZM131.978 48.5614V48.8854C131.978 49.4854 131.786 49.9714 131.402 50.3434C131.018 50.7154 130.522 50.9014 129.914 50.9014C129.266 50.9014 128.728 50.6914 128.3 50.2714C127.876 49.8474 127.664 49.3314 127.664 48.7234C127.664 48.1114 127.874 47.5934 128.294 47.1694C128.718 46.7454 129.242 46.5334 129.866 46.5334C130.258 46.5334 130.616 46.6234 130.94 46.8034C131.264 46.9794 131.516 47.2154 131.696 47.5114L130.988 47.9194C130.888 47.7474 130.736 47.6074 130.532 47.4994C130.332 47.3914 130.108 47.3374 129.86 47.3374C129.46 47.3374 129.13 47.4694 128.87 47.7334C128.614 47.9934 128.486 48.3234 128.486 48.7234C128.486 49.1194 128.616 49.4474 128.876 49.7074C129.14 49.9634 129.488 50.0914 129.92 50.0914C130.24 50.0914 130.504 50.0214 130.712 49.8814C130.924 49.7374 131.068 49.5414 131.144 49.2934H129.872V48.5614H131.978ZM134.54 47.8174H135.314V50.8174H134.54V50.4814C134.352 50.7614 134.054 50.9014 133.646 50.9014C133.318 50.9014 133.046 50.7914 132.83 50.5714C132.618 50.3514 132.512 50.0474 132.512 49.6594V47.8174H133.286V49.5634C133.286 49.7634 133.34 49.9174 133.448 50.0254C133.556 50.1294 133.7 50.1814 133.88 50.1814C134.08 50.1814 134.24 50.1194 134.36 49.9954C134.48 49.8714 134.54 49.6854 134.54 49.4374V47.8174ZM136.407 47.4574C136.279 47.4574 136.167 47.4114 136.071 47.3194C135.979 47.2234 135.933 47.1114 135.933 46.9834C135.933 46.8554 135.979 46.7434 136.071 46.6474C136.167 46.5514 136.279 46.5034 136.407 46.5034C136.539 46.5034 136.651 46.5514 136.743 46.6474C136.839 46.7434 136.887 46.8554 136.887 46.9834C136.887 47.1114 136.839 47.2234 136.743 47.3194C136.651 47.4114 136.539 47.4574 136.407 47.4574ZM136.023 50.8174V47.8174H136.797V50.8174H136.023ZM139.779 46.6174H140.553V50.8174H139.779V50.4634C139.551 50.7554 139.227 50.9014 138.807 50.9014C138.403 50.9014 138.057 50.7494 137.769 50.4454C137.485 50.1374 137.343 49.7614 137.343 49.3174C137.343 48.8734 137.485 48.4994 137.769 48.1954C138.057 47.8874 138.403 47.7334 138.807 47.7334C139.227 47.7334 139.551 47.8794 139.779 48.1714V46.6174ZM138.351 49.9294C138.511 50.0854 138.711 50.1634 138.951 50.1634C139.191 50.1634 139.389 50.0854 139.545 49.9294C139.701 49.7694 139.779 49.5654 139.779 49.3174C139.779 49.0694 139.701 48.8674 139.545 48.7114C139.389 48.5514 139.191 48.4714 138.951 48.4714C138.711 48.4714 138.511 48.5514 138.351 48.7114C138.195 48.8674 138.117 49.0694 138.117 49.3174C138.117 49.5654 138.195 49.7694 138.351 49.9294ZM141.915 49.6354C142.019 50.0114 142.301 50.1994 142.761 50.1994C143.057 50.1994 143.281 50.0994 143.433 49.8994L144.057 50.2594C143.761 50.6874 143.325 50.9014 142.749 50.9014C142.253 50.9014 141.855 50.7514 141.555 50.4514C141.255 50.1514 141.105 49.7734 141.105 49.3174C141.105 48.8654 141.253 48.4894 141.549 48.1894C141.845 47.8854 142.225 47.7334 142.689 47.7334C143.129 47.7334 143.491 47.8854 143.775 48.1894C144.063 48.4934 144.207 48.8694 144.207 49.3174C144.207 49.4174 144.197 49.5234 144.177 49.6354H141.915ZM141.903 49.0354H143.433C143.389 48.8314 143.297 48.6794 143.157 48.5794C143.021 48.4794 142.865 48.4294 142.689 48.4294C142.481 48.4294 142.309 48.4834 142.173 48.5914C142.037 48.6954 141.947 48.8434 141.903 49.0354ZM149.062 46.6174V47.4094H147.928V50.8174H147.1V47.4094H145.972V46.6174H149.062ZM151.499 50.4454C151.191 50.7494 150.815 50.9014 150.371 50.9014C149.927 50.9014 149.551 50.7494 149.243 50.4454C148.939 50.1374 148.787 49.7614 148.787 49.3174C148.787 48.8734 148.939 48.4994 149.243 48.1954C149.551 47.8874 149.927 47.7334 150.371 47.7334C150.815 47.7334 151.191 47.8874 151.499 48.1954C151.807 48.4994 151.961 48.8734 151.961 49.3174C151.961 49.7614 151.807 50.1374 151.499 50.4454ZM149.789 49.9114C149.945 50.0674 150.139 50.1454 150.371 50.1454C150.603 50.1454 150.797 50.0674 150.953 49.9114C151.109 49.7554 151.187 49.5574 151.187 49.3174C151.187 49.0774 151.109 48.8794 150.953 48.7234C150.797 48.5674 150.603 48.4894 150.371 48.4894C150.139 48.4894 149.945 48.5674 149.789 48.7234C149.637 48.8794 149.561 49.0774 149.561 49.3174C149.561 49.5574 149.637 49.7554 149.789 49.9114ZM158.151 46.6174V50.8174H157.329V48.0934L156.147 50.0434H156.051L154.869 48.0994V50.8174H154.041V46.6174H154.893L156.099 48.6034L157.299 46.6174H158.151ZM159.282 47.4574C159.154 47.4574 159.042 47.4114 158.946 47.3194C158.854 47.2234 158.808 47.1114 158.808 46.9834C158.808 46.8554 158.854 46.7434 158.946 46.6474C159.042 46.5514 159.154 46.5034 159.282 46.5034C159.414 46.5034 159.526 46.5514 159.618 46.6474C159.714 46.7434 159.762 46.8554 159.762 46.9834C159.762 47.1114 159.714 47.2234 159.618 47.3194C159.526 47.4114 159.414 47.4574 159.282 47.4574ZM158.898 50.8174V47.8174H159.672V50.8174H158.898ZM162.048 47.7334C162.376 47.7334 162.646 47.8434 162.858 48.0634C163.074 48.2834 163.182 48.5874 163.182 48.9754V50.8174H162.408V49.0714C162.408 48.8714 162.354 48.7194 162.246 48.6154C162.138 48.5074 161.994 48.4534 161.814 48.4534C161.614 48.4534 161.454 48.5154 161.334 48.6394C161.214 48.7634 161.154 48.9494 161.154 49.1974V50.8174H160.38V47.8174H161.154V48.1534C161.342 47.8734 161.64 47.7334 162.048 47.7334ZM166.117 46.6174H166.891V50.8174H166.117V50.4634C165.889 50.7554 165.565 50.9014 165.145 50.9014C164.741 50.9014 164.395 50.7494 164.107 50.4454C163.823 50.1374 163.681 49.7614 163.681 49.3174C163.681 48.8734 163.823 48.4994 164.107 48.1954C164.395 47.8874 164.741 47.7334 165.145 47.7334C165.565 47.7334 165.889 47.8794 166.117 48.1714V46.6174ZM164.689 49.9294C164.849 50.0854 165.049 50.1634 165.289 50.1634C165.529 50.1634 165.727 50.0854 165.883 49.9294C166.039 49.7694 166.117 49.5654 166.117 49.3174C166.117 49.0694 166.039 48.8674 165.883 48.7114C165.727 48.5514 165.529 48.4714 165.289 48.4714C165.049 48.4714 164.849 48.5514 164.689 48.7114C164.533 48.8674 164.455 49.0694 164.455 49.3174C164.455 49.5654 164.533 49.7694 164.689 49.9294ZM169.213 47.2774C168.789 47.2454 168.577 47.4154 168.577 47.7874V47.8174H169.213V48.5614H168.577V50.8174H167.803V48.5614H167.371V47.8174H167.803V47.7874C167.803 47.3634 167.921 47.0414 168.157 46.8214C168.393 46.6014 168.745 46.5054 169.213 46.5334V47.2774ZM171.548 47.8174H172.322V50.8174H171.548V50.4814C171.36 50.7614 171.062 50.9014 170.654 50.9014C170.326 50.9014 170.054 50.7914 169.838 50.5714C169.626 50.3514 169.52 50.0474 169.52 49.6594V47.8174H170.294V49.5634C170.294 49.7634 170.348 49.9174 170.456 50.0254C170.564 50.1294 170.708 50.1814 170.888 50.1814C171.088 50.1814 171.248 50.1194 171.368 49.9954C171.488 49.8714 171.548 49.6854 171.548 49.4374V47.8174ZM173.031 50.8174V46.4374H173.805V50.8174H173.031ZM178.479 46.6174H179.307V50.8174H178.677L176.877 48.2494V50.8174H176.049V46.6174H176.679L178.479 49.1794V46.6174ZM182.03 47.8174H182.804V50.8174H182.03V50.4814C181.842 50.7614 181.544 50.9014 181.136 50.9014C180.808 50.9014 180.536 50.7914 180.32 50.5714C180.108 50.3514 180.002 50.0474 180.002 49.6594V47.8174H180.776V49.5634C180.776 49.7634 180.83 49.9174 180.938 50.0254C181.046 50.1294 181.19 50.1814 181.37 50.1814C181.57 50.1814 181.73 50.1194 181.85 49.9954C181.97 49.8714 182.03 49.6854 182.03 49.4374V47.8174ZM185.229 48.5614H184.551V49.8094C184.551 49.9134 184.577 49.9894 184.629 50.0374C184.681 50.0854 184.757 50.1134 184.857 50.1214C184.957 50.1254 185.081 50.1234 185.229 50.1154V50.8174C184.697 50.8774 184.321 50.8274 184.101 50.6674C183.885 50.5074 183.777 50.2214 183.777 49.8094V48.5614H183.255V47.8174H183.777V47.2114L184.551 46.9774V47.8174H185.229V48.5614ZM186.596 48.3334C186.668 48.1414 186.786 47.9974 186.95 47.9014C187.118 47.8054 187.304 47.7574 187.508 47.7574V48.6214C187.272 48.5934 187.06 48.6414 186.872 48.7654C186.688 48.8894 186.596 49.0954 186.596 49.3834V50.8174H185.822V47.8174H186.596V48.3334ZM188.344 47.4574C188.216 47.4574 188.104 47.4114 188.008 47.3194C187.916 47.2234 187.87 47.1114 187.87 46.9834C187.87 46.8554 187.916 46.7434 188.008 46.6474C188.104 46.5514 188.216 46.5034 188.344 46.5034C188.476 46.5034 188.588 46.5514 188.68 46.6474C188.776 46.7434 188.824 46.8554 188.824 46.9834C188.824 47.1114 188.776 47.2234 188.68 47.3194C188.588 47.4114 188.476 47.4574 188.344 47.4574ZM187.96 50.8174V47.8174H188.734V50.8174H187.96ZM191.159 48.5614H190.481V49.8094C190.481 49.9134 190.507 49.9894 190.559 50.0374C190.611 50.0854 190.687 50.1134 190.787 50.1214C190.887 50.1254 191.011 50.1234 191.159 50.1154V50.8174C190.627 50.8774 190.251 50.8274 190.031 50.6674C189.815 50.5074 189.707 50.2214 189.707 49.8094V48.5614H189.185V47.8174H189.707V47.2114L190.481 46.9774V47.8174H191.159V48.5614ZM192.089 47.4574C191.961 47.4574 191.849 47.4114 191.753 47.3194C191.661 47.2234 191.615 47.1114 191.615 46.9834C191.615 46.8554 191.661 46.7434 191.753 46.6474C191.849 46.5514 191.961 46.5034 192.089 46.5034C192.221 46.5034 192.333 46.5514 192.425 46.6474C192.521 46.7434 192.569 46.8554 192.569 46.9834C192.569 47.1114 192.521 47.2234 192.425 47.3194C192.333 47.4114 192.221 47.4574 192.089 47.4574ZM191.705 50.8174V47.8174H192.479V50.8174H191.705ZM195.743 50.4454C195.435 50.7494 195.059 50.9014 194.615 50.9014C194.171 50.9014 193.795 50.7494 193.487 50.4454C193.183 50.1374 193.031 49.7614 193.031 49.3174C193.031 48.8734 193.183 48.4994 193.487 48.1954C193.795 47.8874 194.171 47.7334 194.615 47.7334C195.059 47.7334 195.435 47.8874 195.743 48.1954C196.051 48.4994 196.205 48.8734 196.205 49.3174C196.205 49.7614 196.051 50.1374 195.743 50.4454ZM194.033 49.9114C194.189 50.0674 194.383 50.1454 194.615 50.1454C194.847 50.1454 195.041 50.0674 195.197 49.9114C195.353 49.7554 195.431 49.5574 195.431 49.3174C195.431 49.0774 195.353 48.8794 195.197 48.7234C195.041 48.5674 194.847 48.4894 194.615 48.4894C194.383 48.4894 194.189 48.5674 194.033 48.7234C193.881 48.8794 193.805 49.0774 193.805 49.3174C193.805 49.5574 193.881 49.7554 194.033 49.9114ZM198.418 47.7334C198.746 47.7334 199.016 47.8434 199.228 48.0634C199.444 48.2834 199.552 48.5874 199.552 48.9754V50.8174H198.778V49.0714C198.778 48.8714 198.724 48.7194 198.616 48.6154C198.508 48.5074 198.364 48.4534 198.184 48.4534C197.984 48.4534 197.824 48.5154 197.704 48.6394C197.584 48.7634 197.524 48.9494 197.524 49.1974V50.8174H196.75V47.8174H197.524V48.1534C197.712 47.8734 198.01 47.7334 198.418 47.7334ZM201.022 50.7454C200.922 50.8454 200.802 50.8954 200.662 50.8954C200.522 50.8954 200.402 50.8454 200.302 50.7454C200.202 50.6454 200.152 50.5254 200.152 50.3854C200.152 50.2454 200.202 50.1254 200.302 50.0254C200.402 49.9254 200.522 49.8754 200.662 49.8754C200.802 49.8754 200.922 49.9254 201.022 50.0254C201.122 50.1254 201.172 50.2454 201.172 50.3854C201.172 50.5254 201.122 50.6454 201.022 50.7454ZM202.838 46.6114L202.388 48.2794H201.758L201.998 46.6114H202.838ZM203.948 46.6114L203.498 48.2794H202.868L203.108 46.6114H203.948Z" fill="#044810"/>
<path d="M198.612 31.5898C201.802 31.59 203.342 33.148 203.342 35.7031V40.9053H200.152V39.1465C200.297 38.8034 200.403 38.4685 200.469 38.1807C197.75 42.9586 195.185 40.0535 196.559 39.3496C199.928 40.0782 199.975 37.9334 200.222 36.1211C198.802 36.618 195.196 36.2862 196.055 38.7705C197.154 37.7768 197.887 37.6519 198.894 37.4863C194.498 39.1839 195.918 40.7984 196.284 41.0469C196.308 41.0591 196.333 41.0696 196.356 41.0811C194.398 41.03 193.302 40.1 193.302 38.585C193.302 38.4637 193.312 38.346 193.328 38.2314C193.842 35.2011 198.846 36.7947 200.033 33.5674C198.452 33.8224 196.463 33.1596 196.106 34.9443C196.514 34.6383 197.484 35.0933 198.963 34.4336C196.358 36.1152 195.613 34.729 193.486 35.6182L193.485 35.6133H193.483V35.5762C193.484 33.1479 195.513 31.5898 198.612 31.5898Z" fill="#044810"/>
<path d="M123.811 32.1445C127 32.1446 128.541 33.6228 128.541 36.0459V40.9775H125.351V39.3086C125.495 38.9835 125.601 38.6664 125.667 38.3936C122.949 42.924 120.383 40.1694 121.757 39.502C125.127 40.1929 125.173 38.159 125.42 36.4404C124.001 36.9115 120.395 36.5967 121.253 38.9521C122.352 38.0099 123.085 37.8924 124.092 37.7354C119.697 39.3451 121.116 40.8758 121.482 41.1113C121.507 41.1234 121.533 41.1332 121.558 41.1445C119.597 41.0969 118.5 40.2155 118.5 38.7783C118.5 38.6638 118.51 38.5525 118.526 38.4443C119.039 35.5684 124.044 37.0808 125.231 34.0195C123.651 34.2613 121.662 33.6328 121.305 35.3252C121.713 35.035 122.682 35.4674 124.161 34.8418C121.556 36.4364 120.811 35.1216 118.685 35.9648L118.684 35.96H118.682V35.9258C118.682 33.6229 120.711 32.1445 123.811 32.1445Z" fill="#98D300"/>
<defs>
<filter id="filter0_d_309_3336" x="0.867802" y="0" width="58.4766" height="56.9163" filterUnits="userSpaceOnUse" color-interpolation-filters="sRGB">
<feFlood flood-opacity="0" result="BackgroundImageFix"/>
<feColorMatrix in="SourceAlpha" type="matrix" values="0 0 0 0 0 0 0 0 0 0 0 0 0 0 0 0 0 0 127 0" result="hardAlpha"/>
<feOffset dy="3.07336"/>
<feGaussianBlur stdDeviation="1.53668"/>
<feComposite in2="hardAlpha" operator="out"/>
<feColorMatrix type="matrix" values="0 0 0 0 0 0 0 0 0 0 0 0 0 0 0 0 0 0 0.25 0"/>
<feBlend mode="normal" in2="BackgroundImageFix" result="effect1_dropShadow_309_3336"/>
<feBlend mode="normal" in="SourceGraphic" in2="effect1_dropShadow_309_3336" result="shape"/>
</filter>
<linearGradient id="paint0_linear_309_3336" x1="36.0441" y1="0" x2="36.0441" y2="22.2032" gradientUnits="userSpaceOnUse">
<stop stop-color="#B7F123"/>
<stop offset="1" stop-color="#3A935C"/>
</linearGradient>
<linearGradient id="paint1_linear_309_3336" x1="23.7883" y1="9.66802" x2="28.1937" y2="23.0494" gradientUnits="userSpaceOnUse">
<stop stop-color="#B7F123"/>
<stop offset="1" stop-color="#028219"/>
</linearGradient>
<linearGradient id="paint2_linear_309_3336" x1="30" y1="19.0508" x2="30" y2="50.001" gradientUnits="userSpaceOnUse">
<stop stop-color="#98D300"/>
<stop offset="1" stop-color="#044810"/>
</linearGradient>
<linearGradient id="paint3_linear_309_3336" x1="30" y1="19.0508" x2="30" y2="50.001" gradientUnits="userSpaceOnUse">
<stop stop-color="#98D300"/>
<stop offset="1" stop-color="#044810"/>
</linearGradient>
</defs>
</svg>
