<svg width="1662" height="290" viewBox="0 0 1662 290" fill="none" xmlns="http://www.w3.org/2000/svg">
<path d="M208.804 0.974609C134.168 18.9756 135.979 90.9794 146.214 124.731C146.214 70.7283 174.557 39.7267 188.729 30.9762C163.221 47.9771 162.355 85.5625 165.11 102.23C205.735 84.229 211.167 27.226 208.804 0.974609Z" fill="url(#paint0_linear_790_24459)"/>
<path d="M87.5594 61.2157C133.607 58.0815 145.454 102.28 145.621 124.771C135.957 91.8789 114.145 78.3502 104.447 75.6973C122.127 81.234 129.35 103.963 130.751 114.636C104.219 111.345 90.9016 77.6514 87.5594 61.2157Z" fill="url(#paint1_linear_790_24459)"/>
<path d="M20.3877 217.575C24.1056 220.119 27.9991 222.558 32.0488 224.876C36.5399 227.447 41.2511 229.887 46.1621 232.179C41.415 261.441 37.4182 280.062 36.0537 285.477H5.28125C12.3644 260.412 17.1036 238.333 20.3877 217.575ZM128.405 252.638C137.374 253.208 146.565 253.3 155.928 252.858C154.102 263.41 154.195 274.362 156.95 285.477H127.426C129.307 278.278 130.359 266.571 128.405 252.638ZM266.63 222.056C269.839 241.664 274.191 262.432 280.241 285.477H248.355C247.466 281.518 243.155 264.548 238.361 235.052C247.773 231.354 257.21 227.038 266.63 222.056ZM55.2529 112.968C81.4373 156.725 156.478 226.973 228.279 112.968H256.825C258.132 142.427 259.602 169.551 263.204 198.306C253.78 203.663 244.342 208.272 234.94 212.193C232.745 196.222 230.593 177.717 228.754 156.725C212.999 165.428 178.747 193.748 162.963 229.886C149.065 231.035 135.578 230.878 122.693 229.642C113.799 204.96 94.5999 177.655 56.501 156.725C54.3039 175.994 51.9907 193.467 49.7393 208.91C47.5056 207.762 45.3284 206.584 43.2139 205.374C35.9127 201.194 29.4291 196.715 23.8105 192.081C26.7003 166.11 27.7484 141.198 28.9043 113.67L28.9336 112.968H55.2529Z" fill="url(#paint2_linear_790_24459)"/>
<path d="M20.3877 217.575L22.5642 214.394L17.5333 210.952L16.5807 216.973L20.3877 217.575ZM32.0488 224.876L30.134 228.221L30.134 228.221L32.0488 224.876ZM46.1621 232.179L49.9667 232.796L50.4335 229.919L47.792 228.686L46.1621 232.179ZM36.0537 285.477V289.331H39.0573L39.7912 286.418L36.0537 285.477ZM5.28125 285.477L1.57219 284.428L0.186738 289.331H5.28125V285.477ZM128.405 252.638L128.65 248.791L123.932 248.491L124.588 253.173L128.405 252.638ZM155.928 252.858L159.726 253.515L160.545 248.782L155.746 249.008L155.928 252.858ZM156.95 285.477V289.331H161.877L160.691 284.549L156.95 285.477ZM127.426 285.477L123.697 284.502L122.435 289.331H127.426V285.477ZM266.63 222.056L270.434 221.433L269.568 216.142L264.828 218.649L266.63 222.056ZM280.241 285.477V289.331H285.238L283.969 284.498L280.241 285.477ZM248.355 285.477L244.595 286.321L245.271 289.331H248.355V285.477ZM238.361 235.052L236.952 231.464L234.058 232.601L234.557 235.67L238.361 235.052ZM55.2529 112.968L58.5603 110.989L57.4382 109.113H55.2529V112.968ZM228.279 112.968V109.113H226.152L225.018 110.914L228.279 112.968ZM256.825 112.968L260.676 112.797L260.512 109.113H256.825V112.968ZM263.204 198.306L265.109 201.656L267.349 200.383L267.029 197.827L263.204 198.306ZM234.94 212.193L231.122 212.718L231.804 217.678L236.424 215.751L234.94 212.193ZM228.754 156.725L232.594 156.388L232.076 150.486L226.89 153.351L228.754 156.725ZM162.963 229.886L163.281 233.727L165.574 233.537L166.495 231.428L162.963 229.886ZM122.693 229.642L119.067 230.948L119.895 233.245L122.325 233.478L122.693 229.642ZM56.501 156.725L58.3568 153.346L53.3222 150.581L52.6715 156.288L56.501 156.725ZM49.7393 208.91L47.9777 212.338L52.7751 214.804L53.5533 209.466L49.7393 208.91ZM43.2139 205.374L41.299 208.719L41.299 208.719L43.2139 205.374ZM23.8105 192.081L19.9799 191.655L19.7492 193.727L21.358 195.054L23.8105 192.081ZM28.9043 113.67L32.7552 113.832L32.7553 113.831L28.9043 113.67ZM28.9336 112.968V109.113H25.2367L25.0826 112.807L28.9336 112.968ZM20.3877 217.575L18.2112 220.756C22.0165 223.36 25.9974 225.853 30.134 228.221L32.0488 224.876L33.9637 221.531C30.0008 219.262 26.1948 216.878 22.5642 214.394L20.3877 217.575ZM32.0488 224.876L30.134 228.221C34.7209 230.847 39.5273 233.336 44.5322 235.671L46.1621 232.179L47.792 228.686C42.9748 226.438 38.3589 224.047 33.9637 221.531L32.0488 224.876ZM46.1621 232.179L42.3575 231.561C37.6188 260.772 33.6424 279.272 32.3162 284.535L36.0537 285.477L39.7912 286.418C41.1939 280.852 45.2113 262.109 49.9667 232.796L46.1621 232.179ZM36.0537 285.477V281.622H5.28125V285.477V289.331H36.0537V285.477ZM5.28125 285.477L8.99031 286.525C16.1136 261.318 20.8861 239.09 24.1947 218.177L20.3877 217.575L16.5807 216.973C13.3212 237.575 8.61526 259.506 1.57219 284.428L5.28125 285.477ZM128.405 252.638L128.161 256.484C137.27 257.064 146.603 257.157 156.109 256.708L155.928 252.858L155.746 249.008C146.527 249.444 137.479 249.353 128.65 248.791L128.405 252.638ZM155.928 252.858L152.13 252.201C150.223 263.225 150.313 274.72 153.209 286.404L156.95 285.477L160.691 284.549C158.077 274.004 157.982 263.595 159.726 253.515L155.928 252.858ZM156.95 285.477V281.622H127.426V285.477V289.331H156.95V285.477ZM127.426 285.477L131.155 286.451C133.18 278.698 134.237 266.473 132.222 252.103L128.405 252.638L124.588 253.173C126.48 266.669 125.433 277.857 123.697 284.502L127.426 285.477ZM266.63 222.056L262.826 222.678C266.056 242.41 270.433 263.297 276.513 286.455L280.241 285.477L283.969 284.498C277.949 261.567 273.623 240.918 270.434 221.433L266.63 222.056ZM280.241 285.477V281.622H248.355V285.477V289.331H280.241V285.477ZM248.355 285.477L252.116 284.632C251.217 280.63 246.937 263.789 242.166 234.433L238.361 235.052L234.557 235.67C239.374 265.306 243.715 282.406 244.595 286.321L248.355 285.477ZM238.361 235.052L239.771 238.639C249.316 234.889 258.885 230.513 268.432 225.463L266.63 222.056L264.828 218.649C255.535 223.564 246.229 227.82 236.952 231.464L238.361 235.052ZM55.2529 112.968L51.9455 114.947C65.2476 137.176 91.2197 166.665 123.609 175.837C139.971 180.47 157.896 179.887 176.357 170.665C194.729 161.488 213.354 143.898 231.541 115.022L228.279 112.968L225.018 110.914C207.304 139.04 189.623 155.421 172.912 163.769C156.29 172.072 140.356 172.568 125.71 168.42C96.0829 160.03 71.4426 132.516 58.5603 110.989L55.2529 112.968ZM228.279 112.968V116.822H256.825V112.968V109.113H228.279V112.968ZM256.825 112.968L252.975 113.139C254.282 142.611 255.757 169.866 259.38 198.785L263.204 198.306L267.029 197.827C263.447 169.235 261.982 142.243 260.676 112.797L256.825 112.968ZM263.204 198.306L261.299 194.955C252.011 200.235 242.714 204.776 233.457 208.636L234.94 212.193L236.424 215.751C245.971 211.769 255.549 207.091 265.109 201.656L263.204 198.306ZM234.94 212.193L238.759 211.669C236.572 195.758 234.427 177.316 232.594 156.388L228.754 156.725L224.914 157.061C226.759 178.118 228.919 196.685 231.122 212.718L234.94 212.193ZM228.754 156.725L226.89 153.351C218.621 157.919 205.829 167.424 193.125 180.311C180.405 193.213 167.569 209.71 159.431 228.343L162.963 229.886L166.495 231.428C174.141 213.923 186.322 198.191 198.614 185.723C210.92 173.24 223.133 164.234 230.618 160.098L228.754 156.725ZM162.963 229.886L162.645 226.045C148.98 227.175 135.723 227.02 123.061 225.805L122.693 229.642L122.325 233.478C135.433 234.736 149.15 234.896 163.281 233.727L162.963 229.886ZM122.693 229.642L126.319 228.335C117.11 202.778 97.2855 174.732 58.3568 153.346L56.501 156.725L54.6452 160.103C91.9143 180.577 110.488 207.142 119.067 230.948L122.693 229.642ZM56.501 156.725L52.6715 156.288C50.4792 175.516 48.1712 192.949 45.9253 208.354L49.7393 208.91L53.5533 209.466C55.8102 193.985 58.1287 176.473 60.3305 157.161L56.501 156.725ZM49.7393 208.91L51.5008 205.482C49.3149 204.359 47.1891 203.208 45.1287 202.029L43.2139 205.374L41.299 208.719C43.4678 209.961 45.6962 211.166 47.9777 212.338L49.7393 208.91ZM43.2139 205.374L45.1287 202.029C38.0025 197.95 31.7009 193.593 26.2631 189.108L23.8105 192.081L21.358 195.054C27.1574 199.838 33.8229 204.439 41.299 208.719L43.2139 205.374ZM23.8105 192.081L27.6412 192.507C30.5481 166.382 31.6002 141.339 32.7552 113.832L28.9043 113.67L25.0534 113.508C23.8966 141.057 22.8525 165.837 19.9799 191.655L23.8105 192.081ZM28.9043 113.67L32.7553 113.831L32.7846 113.128L28.9336 112.968L25.0826 112.807L25.0533 113.509L28.9043 113.67ZM28.9336 112.968V116.822H55.2529V112.968V109.113H28.9336V112.968Z" fill="url(#paint3_linear_790_24459)"/>
<path d="M389.29 190.632H332.157V77.7141H389.29C426.536 77.7141 450.131 98.4437 450.131 134.173C450.131 169.902 426.536 190.632 389.29 190.632ZM389.29 106.196H363.842V162.15H389.29C409.346 162.15 416.256 159.622 416.256 134.173C416.256 108.724 409.346 106.196 389.29 106.196ZM490.199 97.9382H458.514V77.7141H490.199V97.9382ZM490.199 190.632H458.514V105.691H490.199V190.632ZM547.677 192.317C518.857 192.317 498.633 180.014 498.633 148.161C498.633 120.522 518.689 104.005 547.003 104.005C576.327 104.005 595.035 118.668 595.035 145.97C595.035 148.835 594.866 151.026 594.529 154.06H527.958C528.464 164.341 533.014 167.206 546.497 167.206C559.306 167.206 562.676 165.015 562.676 159.959V158.105H594.361V160.127C594.361 179.003 576.327 192.317 547.677 192.317ZM546.328 128.274C534.7 128.274 529.812 130.802 528.464 138.049H564.362C563.182 130.802 558.126 128.274 546.328 128.274ZM667.05 190.632H644.804C623.568 190.632 610.928 180.351 610.928 158.273V131.645H598.457V105.691H610.928V91.0283H642.613V105.691H667.05V131.645H642.613V153.723C642.613 160.464 644.635 162.15 651.882 162.15H667.05V190.632ZM706.297 97.9382H674.613V77.7141H706.297V97.9382ZM706.297 190.632H674.613V105.691H706.297V190.632ZM764.113 192.317C733.945 192.317 714.732 175.632 714.732 148.161C714.732 120.522 733.945 104.005 764.113 104.005C793.1 104.005 811.639 118.836 811.639 141.588V144.285H780.123V142.937C780.123 134.173 773.719 132.319 763.438 132.319C751.81 132.319 746.248 134.847 746.248 148.161C746.248 161.307 751.81 163.835 763.438 163.835C773.719 163.835 780.123 162.15 780.123 153.386V151.869H811.639V154.734C811.639 177.318 793.1 192.317 764.113 192.317ZM851.79 97.9382H820.105V77.7141H851.79V97.9382ZM851.79 190.632H820.105V105.691H851.79V190.632ZM993.826 190.632H962.141V105.691H991.803V131.476H993.489C995.342 117.32 1004.61 104.005 1027.36 104.005C1050.28 104.005 1061.07 117.825 1061.07 136.195V190.632H1029.39V147.824C1029.39 136.027 1025 132.319 1011.18 132.319C997.196 132.319 993.826 135.858 993.826 146.813V190.632Z" fill="#98D300"/>
<path d="M1102.12 190.632H1070.44V77.7141H1113.41L1134.14 124.567L1145.27 153.723H1147.46L1158.08 124.567L1177.79 77.7141H1220.77V190.632H1189.09V143.948L1190.27 125.072H1188.07L1181.67 143.948L1164.82 183.89H1126.39L1109.54 143.948L1103.13 125.072H1100.94L1102.12 143.948V190.632ZM1278.26 192.317C1249.45 192.317 1229.22 180.014 1229.22 148.161C1229.22 120.522 1249.28 104.005 1277.59 104.005C1306.92 104.005 1325.62 118.668 1325.62 145.97C1325.62 148.835 1325.45 151.026 1325.12 154.06H1258.55C1259.05 164.341 1263.6 167.206 1277.09 167.206C1289.89 167.206 1293.26 165.015 1293.26 159.959V158.105H1324.95V160.127C1324.95 179.003 1306.92 192.317 1278.26 192.317ZM1276.92 128.274C1265.29 128.274 1260.4 130.802 1259.05 138.049H1294.95C1293.77 130.802 1288.71 128.274 1276.92 128.274ZM1371.85 181.194C1346.57 181.194 1332.42 166.7 1332.42 142.431C1332.42 118.499 1347.58 104.005 1372.7 104.005C1389.89 104.005 1401.35 110.915 1403.71 125.578H1405.39V105.691H1435.05V176.306C1435.05 206.643 1417.02 220.968 1384.32 220.968C1354.66 220.968 1337.47 208.496 1337.47 186.25H1369.16C1369.16 193.16 1370 194.845 1386.52 194.845C1400.17 194.845 1403.37 192.823 1403.37 178.497V160.633H1401.68C1399.49 172.936 1390.56 181.194 1371.85 181.194ZM1364.44 142.431C1364.44 150.858 1368.48 154.06 1383.31 154.06C1397.47 154.06 1403.37 152.375 1403.37 143.442V142.263C1403.37 133.162 1397.47 131.308 1383.31 131.308C1368.48 131.308 1364.44 134.173 1364.44 142.431ZM1476.88 190.632H1445.2V77.7141H1476.88V131.476H1478.56C1481.26 117.151 1490.7 104.005 1512.44 104.005C1535.02 104.005 1545.81 118.331 1545.81 137.207V190.632H1514.13V147.824C1514.13 136.027 1509.58 132.319 1495.08 132.319C1480.42 132.319 1476.88 135.858 1476.88 146.813V190.632Z" fill="#044810"/>
<path d="M351.917 242.675H359.669V282H353.77L336.917 257.956V282H329.165V242.675H335.063L351.917 266.663V242.675ZM385.166 253.911H392.413V282H385.166V278.854C383.405 281.476 380.615 282.786 376.795 282.786C373.724 282.786 371.177 281.757 369.155 279.697C367.17 277.637 366.177 274.79 366.177 271.158V253.911H373.424V270.259C373.424 272.131 373.93 273.573 374.941 274.585C375.952 275.558 377.301 276.045 378.986 276.045C380.859 276.045 382.357 275.465 383.48 274.304C384.604 273.143 385.166 271.401 385.166 269.079V253.911ZM415.117 260.877H408.769V272.562C408.769 273.536 409.012 274.247 409.499 274.697C409.986 275.146 410.697 275.408 411.634 275.483C412.57 275.521 413.731 275.502 415.117 275.427V282C410.136 282.562 406.615 282.094 404.555 280.596C402.533 279.097 401.522 276.42 401.522 272.562V260.877H396.634V253.911H401.522V248.237L408.769 246.046V253.911H415.117V260.877ZM427.912 258.742C428.586 256.945 429.691 255.596 431.227 254.697C432.8 253.799 434.541 253.349 436.451 253.349V261.439C434.242 261.177 432.257 261.626 430.496 262.787C428.774 263.948 427.912 265.877 427.912 268.573V282H420.665V253.911H427.912V258.742ZM444.285 250.54C443.087 250.54 442.038 250.11 441.139 249.248C440.278 248.349 439.847 247.301 439.847 246.102C439.847 244.904 440.278 243.855 441.139 242.956C442.038 242.057 443.087 241.608 444.285 241.608C445.521 241.608 446.57 242.057 447.431 242.956C448.33 243.855 448.779 244.904 448.779 246.102C448.779 247.301 448.33 248.349 447.431 249.248C446.57 250.11 445.521 250.54 444.285 250.54ZM440.69 282V253.911H447.937V282H440.69ZM470.187 253.125C473.258 253.125 475.786 254.154 477.771 256.214C479.793 258.274 480.805 261.121 480.805 264.753V282H473.558V265.652C473.558 263.78 473.052 262.356 472.041 261.383C471.03 260.371 469.681 259.866 467.996 259.866C466.124 259.866 464.625 260.446 463.502 261.607C462.378 262.768 461.817 264.51 461.817 266.832V282H454.57V242.675H461.817V257.057C463.577 254.435 466.367 253.125 470.187 253.125ZM505.531 253.911H512.778V282H505.531V278.854C503.771 281.476 500.981 282.786 497.161 282.786C494.09 282.786 491.543 281.757 489.521 279.697C487.536 277.637 486.543 274.79 486.543 271.158V253.911H493.79V270.259C493.79 272.131 494.296 273.573 495.307 274.585C496.318 275.558 497.666 276.045 499.352 276.045C501.224 276.045 502.722 275.465 503.846 274.304C504.97 273.143 505.531 271.401 505.531 269.079V253.911ZM535.763 253.125C539.546 253.125 542.767 254.566 545.426 257.45C548.123 260.297 549.471 263.798 549.471 267.956C549.471 272.113 548.123 275.633 545.426 278.517C542.767 281.363 539.546 282.786 535.763 282.786C531.831 282.786 528.797 281.419 526.663 278.685V282H519.416V242.675H526.663V257.226C528.797 254.492 531.831 253.125 535.763 253.125ZM528.854 273.686C530.314 275.146 532.168 275.877 534.415 275.877C536.662 275.877 538.516 275.146 539.977 273.686C541.475 272.188 542.224 270.278 542.224 267.956C542.224 265.633 541.475 263.742 539.977 262.282C538.516 260.783 536.662 260.034 534.415 260.034C532.168 260.034 530.314 260.783 528.854 262.282C527.393 263.742 526.663 265.633 526.663 267.956C526.663 270.278 527.393 272.188 528.854 273.686ZM554.919 268.517V261.551H575.986V268.517H554.919ZM582.383 258.293L586.597 242.675H592.495L590.248 258.293H582.383ZM592.776 258.293L596.99 242.675H602.888L600.641 258.293H592.776ZM640.409 242.675L626.926 266.663V282H619.23V266.663L605.803 242.675H614.567L623.106 259.079L631.645 242.675H640.409ZM662.177 278.517C659.293 281.363 655.773 282.786 651.616 282.786C647.458 282.786 643.938 281.363 641.054 278.517C638.208 275.633 636.785 272.113 636.785 267.956C636.785 263.798 638.208 260.297 641.054 257.45C643.938 254.566 647.458 253.125 651.616 253.125C655.773 253.125 659.293 254.566 662.177 257.45C665.061 260.297 666.503 263.798 666.503 267.956C666.503 272.113 665.061 275.633 662.177 278.517ZM646.166 273.517C647.627 274.978 649.443 275.708 651.616 275.708C653.788 275.708 655.604 274.978 657.065 273.517C658.526 272.056 659.256 270.203 659.256 267.956C659.256 265.708 658.526 263.855 657.065 262.394C655.604 260.933 653.788 260.203 651.616 260.203C649.443 260.203 647.627 260.933 646.166 262.394C644.743 263.855 644.032 265.708 644.032 267.956C644.032 270.203 644.743 272.056 646.166 273.517ZM690.14 253.911H697.387V282H690.14V278.854C688.379 281.476 685.589 282.786 681.769 282.786C678.698 282.786 676.151 281.757 674.129 279.697C672.144 277.637 671.152 274.79 671.152 271.158V253.911H678.398V270.259C678.398 272.131 678.904 273.573 679.915 274.585C680.926 275.558 682.275 276.045 683.96 276.045C685.833 276.045 687.331 275.465 688.454 274.304C689.578 273.143 690.14 271.401 690.14 269.079V253.911ZM711.271 258.742C711.945 256.945 713.05 255.596 714.585 254.697C716.158 253.799 717.9 253.349 719.81 253.349V261.439C717.6 261.177 715.615 261.626 713.855 262.787C712.132 263.948 711.271 265.877 711.271 268.573V282H704.024V253.911H711.271V258.742ZM764.44 242.675V250.091H753.823V282H746.07V250.091H735.509V242.675H764.44ZM772.112 258.742C772.786 256.945 773.891 255.596 775.427 254.697C777 253.799 778.741 253.349 780.651 253.349V261.439C778.442 261.177 776.457 261.626 774.696 262.787C772.974 263.948 772.112 265.877 772.112 268.573V282H764.865V253.911H772.112V258.742ZM803.428 253.911H810.675V282H803.428V278.854C801.668 281.476 798.878 282.786 795.058 282.786C791.987 282.786 789.44 281.757 787.418 279.697C785.433 277.637 784.44 274.79 784.44 271.158V253.911H791.687V270.259C791.687 272.131 792.193 273.573 793.204 274.585C794.215 275.558 795.563 276.045 797.249 276.045C799.121 276.045 800.619 275.465 801.743 274.304C802.867 273.143 803.428 271.401 803.428 269.079V253.911ZM823.778 261.888C823.778 262.637 824.265 263.255 825.239 263.742C826.25 264.192 827.467 264.604 828.891 264.978C830.314 265.315 831.737 265.765 833.16 266.326C834.583 266.851 835.782 267.75 836.755 269.023C837.767 270.296 838.272 271.888 838.272 273.798C838.272 276.682 837.186 278.91 835.014 280.483C832.879 282.019 830.201 282.786 826.98 282.786C821.213 282.786 817.28 280.558 815.183 276.101L821.475 272.562C822.299 274.996 824.134 276.214 826.98 276.214C829.565 276.214 830.857 275.408 830.857 273.798C830.857 273.049 830.351 272.45 829.34 272C828.366 271.513 827.168 271.083 825.745 270.708C824.321 270.334 822.898 269.866 821.475 269.304C820.052 268.742 818.835 267.862 817.823 266.663C816.85 265.427 816.363 263.892 816.363 262.057C816.363 259.285 817.374 257.113 819.396 255.54C821.456 253.93 824.003 253.125 827.037 253.125C829.321 253.125 831.4 253.649 833.272 254.697C835.145 255.709 836.624 257.169 837.71 259.079L831.531 262.45C830.632 260.54 829.134 259.585 827.037 259.585C826.1 259.585 825.314 259.791 824.677 260.203C824.078 260.615 823.778 261.177 823.778 261.888ZM858.177 260.877H851.829V272.562C851.829 273.536 852.072 274.247 852.559 274.697C853.046 275.146 853.757 275.408 854.694 275.483C855.63 275.521 856.791 275.502 858.177 275.427V282C853.196 282.562 849.675 282.094 847.615 280.596C845.593 279.097 844.582 276.42 844.582 272.562V260.877H839.694V253.911H844.582V248.237L851.829 246.046V253.911H858.177V260.877ZM868.532 270.933C869.506 274.453 872.146 276.214 876.453 276.214C879.225 276.214 881.322 275.277 882.745 273.405L888.588 276.775C885.816 280.783 881.734 282.786 876.341 282.786C871.697 282.786 867.97 281.382 865.161 278.573C862.352 275.764 860.948 272.225 860.948 267.956C860.948 263.723 862.334 260.203 865.105 257.394C867.877 254.548 871.435 253.125 875.779 253.125C879.899 253.125 883.288 254.548 885.947 257.394C888.644 260.24 889.992 263.761 889.992 267.956C889.992 268.892 889.898 269.884 889.711 270.933H868.532ZM868.42 265.315H882.745C882.333 263.405 881.472 261.982 880.161 261.046C878.887 260.109 877.427 259.641 875.779 259.641C873.831 259.641 872.221 260.147 870.948 261.158C869.674 262.132 868.832 263.517 868.42 265.315ZM916.123 242.675H923.37V282H916.123V278.685C913.988 281.419 910.955 282.786 907.022 282.786C903.24 282.786 900 281.363 897.303 278.517C894.644 275.633 893.315 272.113 893.315 267.956C893.315 263.798 894.644 260.297 897.303 257.45C900 254.566 903.24 253.125 907.022 253.125C910.955 253.125 913.988 254.492 916.123 257.226V242.675ZM902.753 273.686C904.251 275.146 906.123 275.877 908.371 275.877C910.618 275.877 912.472 275.146 913.932 273.686C915.393 272.188 916.123 270.278 916.123 267.956C916.123 265.633 915.393 263.742 913.932 262.282C912.472 260.783 910.618 260.034 908.371 260.034C906.123 260.034 904.251 260.783 902.753 262.282C901.292 263.742 900.562 265.633 900.562 267.956C900.562 270.278 901.292 272.188 902.753 273.686ZM982.974 260.877V263.911C982.974 269.528 981.176 274.079 977.58 277.562C973.985 281.045 969.341 282.786 963.648 282.786C957.581 282.786 952.544 280.82 948.536 276.888C944.567 272.918 942.582 268.087 942.582 262.394C942.582 256.664 944.548 251.814 948.48 247.844C952.45 243.874 957.356 241.889 963.199 241.889C966.869 241.889 970.221 242.732 973.255 244.417C976.288 246.065 978.648 248.274 980.333 251.046L973.704 254.866C972.768 253.256 971.345 251.945 969.435 250.934C967.562 249.922 965.465 249.417 963.143 249.417C959.398 249.417 956.308 250.653 953.873 253.125C951.476 255.559 950.278 258.649 950.278 262.394C950.278 266.102 951.495 269.173 953.93 271.607C956.401 274.004 959.66 275.202 963.705 275.202C966.701 275.202 969.173 274.547 971.12 273.236C973.105 271.888 974.453 270.053 975.165 267.731H963.255V260.877H982.974ZM1006.96 253.911H1014.21V282H1006.96V278.854C1005.2 281.476 1002.41 282.786 998.593 282.786C995.522 282.786 992.975 281.757 990.953 279.697C988.968 277.637 987.976 274.79 987.976 271.158V253.911H995.223V270.259C995.223 272.131 995.728 273.573 996.739 274.585C997.751 275.558 999.099 276.045 1000.78 276.045C1002.66 276.045 1004.15 275.465 1005.28 274.304C1006.4 273.143 1006.96 271.401 1006.96 269.079V253.911ZM1024.44 250.54C1023.24 250.54 1022.2 250.11 1021.3 249.248C1020.44 248.349 1020.01 247.301 1020.01 246.102C1020.01 244.904 1020.44 243.855 1021.3 242.956C1022.2 242.057 1023.24 241.608 1024.44 241.608C1025.68 241.608 1026.73 242.057 1027.59 242.956C1028.49 243.855 1028.94 244.904 1028.94 246.102C1028.94 247.301 1028.49 248.349 1027.59 249.248C1026.73 250.11 1025.68 250.54 1024.44 250.54ZM1020.85 282V253.911H1028.1V282H1020.85ZM1056.02 242.675H1063.27V282H1056.02V278.685C1053.88 281.419 1050.85 282.786 1046.92 282.786C1043.14 282.786 1039.9 281.363 1037.2 278.517C1034.54 275.633 1033.21 272.113 1033.21 267.956C1033.21 263.798 1034.54 260.297 1037.2 257.45C1039.9 254.566 1043.14 253.125 1046.92 253.125C1050.85 253.125 1053.88 254.492 1056.02 257.226V242.675ZM1042.65 273.686C1044.15 275.146 1046.02 275.877 1048.27 275.877C1050.51 275.877 1052.37 275.146 1053.83 273.686C1055.29 272.188 1056.02 270.278 1056.02 267.956C1056.02 265.633 1055.29 263.742 1053.83 262.282C1052.37 260.783 1050.51 260.034 1048.27 260.034C1046.02 260.034 1044.15 260.783 1042.65 262.282C1041.19 263.742 1040.46 265.633 1040.46 267.956C1040.46 270.278 1041.19 272.188 1042.65 273.686ZM1076.02 270.933C1076.99 274.453 1079.63 276.214 1083.94 276.214C1086.71 276.214 1088.81 275.277 1090.23 273.405L1096.07 276.775C1093.3 280.783 1089.22 282.786 1083.83 282.786C1079.18 282.786 1075.46 281.382 1072.65 278.573C1069.84 275.764 1068.43 272.225 1068.43 267.956C1068.43 263.723 1069.82 260.203 1072.59 257.394C1075.36 254.548 1078.92 253.125 1083.26 253.125C1087.38 253.125 1090.77 254.548 1093.43 257.394C1096.13 260.24 1097.48 263.761 1097.48 267.956C1097.48 268.892 1097.38 269.884 1097.2 270.933H1076.02ZM1075.91 265.315H1090.23C1089.82 263.405 1088.96 261.982 1087.65 261.046C1086.37 260.109 1084.91 259.641 1083.26 259.641C1081.32 259.641 1079.71 260.147 1078.43 261.158C1077.16 262.132 1076.32 263.517 1075.91 265.315ZM1142.93 242.675V250.091H1132.31V282H1124.56V250.091H1114V242.675H1142.93ZM1165.75 278.517C1162.87 281.363 1159.34 282.786 1155.19 282.786C1151.03 282.786 1147.51 281.363 1144.63 278.517C1141.78 275.633 1140.36 272.113 1140.36 267.956C1140.36 263.798 1141.78 260.297 1144.63 257.45C1147.51 254.566 1151.03 253.125 1155.19 253.125C1159.34 253.125 1162.87 254.566 1165.75 257.45C1168.63 260.297 1170.07 263.798 1170.07 267.956C1170.07 272.113 1168.63 275.633 1165.75 278.517ZM1149.74 273.517C1151.2 274.978 1153.02 275.708 1155.19 275.708C1157.36 275.708 1159.18 274.978 1160.64 273.517C1162.1 272.056 1162.83 270.203 1162.83 267.956C1162.83 265.708 1162.1 263.855 1160.64 262.394C1159.18 260.933 1157.36 260.203 1155.19 260.203C1153.02 260.203 1151.2 260.933 1149.74 262.394C1148.32 263.855 1147.6 265.708 1147.6 267.956C1147.6 270.203 1148.32 272.056 1149.74 273.517ZM1228.04 242.675V282H1220.34V256.495L1209.27 274.753H1208.37L1197.31 256.551V282H1189.55V242.675H1197.53L1208.82 261.27L1220.06 242.675H1228.04ZM1238.62 250.54C1237.42 250.54 1236.37 250.11 1235.48 249.248C1234.61 248.349 1234.18 247.301 1234.18 246.102C1234.18 244.904 1234.61 243.855 1235.48 242.956C1236.37 242.057 1237.42 241.608 1238.62 241.608C1239.86 241.608 1240.91 242.057 1241.77 242.956C1242.67 243.855 1243.12 244.904 1243.12 246.102C1243.12 247.301 1242.67 248.349 1241.77 249.248C1240.91 250.11 1239.86 250.54 1238.62 250.54ZM1235.03 282V253.911H1242.27V282H1235.03ZM1264.52 253.125C1267.6 253.125 1270.12 254.154 1272.11 256.214C1274.13 258.274 1275.14 261.121 1275.14 264.753V282H1267.89V265.652C1267.89 263.78 1267.39 262.356 1266.38 261.383C1265.37 260.371 1264.02 259.866 1262.33 259.866C1260.46 259.866 1258.96 260.446 1257.84 261.607C1256.72 262.768 1256.15 264.51 1256.15 266.832V282H1248.91V253.911H1256.15V257.057C1257.91 254.435 1260.7 253.125 1264.52 253.125ZM1302.62 242.675H1309.87V282H1302.62V278.685C1300.49 281.419 1297.45 282.786 1293.52 282.786C1289.74 282.786 1286.5 281.363 1283.8 278.517C1281.14 275.633 1279.81 272.113 1279.81 267.956C1279.81 263.798 1281.14 260.297 1283.8 257.45C1286.5 254.566 1289.74 253.125 1293.52 253.125C1297.45 253.125 1300.49 254.492 1302.62 257.226V242.675ZM1289.25 273.686C1290.75 275.146 1292.62 275.877 1294.87 275.877C1297.12 275.877 1298.97 275.146 1300.43 273.686C1301.89 272.188 1302.62 270.278 1302.62 267.956C1302.62 265.633 1301.89 263.742 1300.43 262.282C1298.97 260.783 1297.12 260.034 1294.87 260.034C1292.62 260.034 1290.75 260.783 1289.25 262.282C1287.79 263.742 1287.06 265.633 1287.06 267.956C1287.06 270.278 1287.79 272.188 1289.25 273.686ZM1331.61 248.855C1327.64 248.555 1325.65 250.147 1325.65 253.63V253.911H1331.61V260.877H1325.65V282H1318.41V260.877H1314.36V253.911H1318.41V253.63C1318.41 249.66 1319.51 246.645 1321.72 244.585C1323.93 242.526 1327.23 241.627 1331.61 241.889V248.855ZM1353.47 253.911H1360.71V282H1353.47V278.854C1351.71 281.476 1348.92 282.786 1345.1 282.786C1342.03 282.786 1339.48 281.757 1337.46 279.697C1335.47 277.637 1334.48 274.79 1334.48 271.158V253.911H1341.73V270.259C1341.73 272.131 1342.23 273.573 1343.24 274.585C1344.25 275.558 1345.6 276.045 1347.29 276.045C1349.16 276.045 1350.66 275.465 1351.78 274.304C1352.91 273.143 1353.47 271.401 1353.47 269.079V253.911ZM1367.35 282V240.99H1374.6V282H1367.35ZM1418.37 242.675H1426.12V282H1420.22L1403.37 257.956V282H1395.61V242.675H1401.51L1418.37 266.663V242.675ZM1451.61 253.911H1458.86V282H1451.61V278.854C1449.85 281.476 1447.06 282.786 1443.24 282.786C1440.17 282.786 1437.63 281.757 1435.6 279.697C1433.62 277.637 1432.63 274.79 1432.63 271.158V253.911H1439.87V270.259C1439.87 272.131 1440.38 273.573 1441.39 274.585C1442.4 275.558 1443.75 276.045 1445.44 276.045C1447.31 276.045 1448.81 275.465 1449.93 274.304C1451.05 273.143 1451.61 271.401 1451.61 269.079V253.911ZM1481.57 260.877H1475.22V272.562C1475.22 273.536 1475.46 274.247 1475.95 274.697C1476.44 275.146 1477.15 275.408 1478.08 275.483C1479.02 275.521 1480.18 275.502 1481.57 275.427V282C1476.58 282.562 1473.06 282.094 1471 280.596C1468.98 279.097 1467.97 276.42 1467.97 272.562V260.877H1463.08V253.911H1467.97V248.237L1475.22 246.046V253.911H1481.57V260.877ZM1494.36 258.742C1495.04 256.945 1496.14 255.596 1497.68 254.697C1499.25 253.799 1500.99 253.349 1502.9 253.349V261.439C1500.69 261.177 1498.71 261.626 1496.95 262.787C1495.22 263.948 1494.36 265.877 1494.36 268.573V282H1487.11V253.911H1494.36V258.742ZM1510.73 250.54C1509.54 250.54 1508.49 250.11 1507.59 249.248C1506.73 248.349 1506.3 247.301 1506.3 246.102C1506.3 244.904 1506.73 243.855 1507.59 242.956C1508.49 242.057 1509.54 241.608 1510.73 241.608C1511.97 241.608 1513.02 242.057 1513.88 242.956C1514.78 243.855 1515.23 244.904 1515.23 246.102C1515.23 247.301 1514.78 248.349 1513.88 249.248C1513.02 250.11 1511.97 250.54 1510.73 250.54ZM1507.14 282V253.911H1514.39V282H1507.14ZM1537.09 260.877H1530.74V272.562C1530.74 273.536 1530.98 274.247 1531.47 274.697C1531.95 275.146 1532.67 275.408 1533.6 275.483C1534.54 275.521 1535.7 275.502 1537.09 275.427V282C1532.1 282.562 1528.58 282.094 1526.52 280.596C1524.5 279.097 1523.49 276.42 1523.49 272.562V260.877H1518.6V253.911H1523.49V248.237L1530.74 246.046V253.911H1537.09V260.877ZM1545.79 250.54C1544.59 250.54 1543.54 250.11 1542.64 249.248C1541.78 248.349 1541.35 247.301 1541.35 246.102C1541.35 244.904 1541.78 243.855 1542.64 242.956C1543.54 242.057 1544.59 241.608 1545.79 241.608C1547.03 241.608 1548.08 242.057 1548.94 242.956C1549.84 243.855 1550.28 244.904 1550.28 246.102C1550.28 247.301 1549.84 248.349 1548.94 249.248C1548.08 250.11 1547.03 250.54 1545.79 250.54ZM1542.2 282V253.911H1549.44V282H1542.2ZM1580.01 278.517C1577.12 281.363 1573.6 282.786 1569.45 282.786C1565.29 282.786 1561.77 281.363 1558.88 278.517C1556.04 275.633 1554.61 272.113 1554.61 267.956C1554.61 263.798 1556.04 260.297 1558.88 257.45C1561.77 254.566 1565.29 253.125 1569.45 253.125C1573.6 253.125 1577.12 254.566 1580.01 257.45C1582.89 260.297 1584.33 263.798 1584.33 267.956C1584.33 272.113 1582.89 275.633 1580.01 278.517ZM1564 273.517C1565.46 274.978 1567.27 275.708 1569.45 275.708C1571.62 275.708 1573.43 274.978 1574.89 273.517C1576.36 272.056 1577.09 270.203 1577.09 267.956C1577.09 265.708 1576.36 263.855 1574.89 262.394C1573.43 260.933 1571.62 260.203 1569.45 260.203C1567.27 260.203 1565.46 260.933 1564 262.394C1562.57 263.855 1561.86 265.708 1561.86 267.956C1561.86 270.203 1562.57 272.056 1564 273.517ZM1605.05 253.125C1608.12 253.125 1610.65 254.154 1612.63 256.214C1614.65 258.274 1615.67 261.121 1615.67 264.753V282H1608.42V265.652C1608.42 263.78 1607.91 262.356 1606.9 261.383C1605.89 260.371 1604.54 259.866 1602.86 259.866C1600.98 259.866 1599.49 260.446 1598.36 261.607C1597.24 262.768 1596.68 264.51 1596.68 266.832V282H1589.43V253.911H1596.68V257.057C1598.44 254.435 1601.23 253.125 1605.05 253.125ZM1629.44 281.326C1628.5 282.262 1627.38 282.73 1626.07 282.73C1624.76 282.73 1623.63 282.262 1622.7 281.326C1621.76 280.39 1621.29 279.266 1621.29 277.955C1621.29 276.644 1621.76 275.521 1622.7 274.585C1623.63 273.648 1624.76 273.18 1626.07 273.18C1627.38 273.18 1628.5 273.648 1629.44 274.585C1630.37 275.521 1630.84 276.644 1630.84 277.955C1630.84 279.266 1630.37 280.39 1629.44 281.326ZM1646.44 242.619L1642.22 258.237H1636.32L1638.57 242.619H1646.44ZM1656.83 242.619L1652.62 258.237H1646.72L1648.96 242.619H1656.83Z" fill="#044810"/>
<path d="M1601.92 106.278C1631.47 106.279 1645.74 120.509 1645.74 143.841V191.332H1616.19V175.292C1617.53 172.153 1618.5 169.086 1619.12 166.453C1593.93 210.078 1570.17 183.556 1582.89 177.129C1614.11 183.782 1614.54 164.197 1616.83 147.649C1603.68 152.186 1570.27 149.154 1578.23 171.836C1588.41 162.763 1595.19 161.629 1604.52 160.117C1563.81 175.616 1576.95 190.359 1580.35 192.628C1580.58 192.744 1580.81 192.856 1581.04 192.965C1562.88 192.504 1552.72 183.988 1552.72 170.151C1552.72 169.3 1552.77 168.467 1552.85 167.651C1556.93 139.001 1603.99 154.062 1615.09 124.337C1600.44 126.666 1582.01 120.613 1578.71 136.909C1582.49 134.115 1591.46 138.276 1605.17 132.253C1581.04 147.604 1574.14 134.951 1554.44 143.062L1554.43 143.014H1554.4V142.684C1554.4 120.51 1573.21 106.278 1601.92 106.278Z" fill="#044810"/>
<path d="M909.832 102.557C940.564 102.557 955.407 117.263 955.407 141.374V190.452H924.674V173.866C926.069 170.626 927.08 167.459 927.717 164.74C901.524 209.823 876.807 182.414 890.041 175.772C922.509 182.648 922.955 162.409 925.336 145.309C911.662 149.997 876.92 146.863 885.189 170.303C895.779 160.927 902.835 159.755 912.537 158.192C870.19 174.21 883.866 189.446 887.396 191.79C887.637 191.911 887.878 192.026 888.117 192.14C869.234 191.663 858.668 182.863 858.668 168.563C858.668 167.67 858.716 166.795 858.81 165.939C863.076 136.376 911.992 151.918 923.527 121.211C908.295 123.618 889.132 117.363 885.692 134.203C889.623 131.316 898.96 135.616 913.209 129.392C888.117 145.256 880.939 132.179 860.454 140.563L860.441 140.519H860.414V140.177C860.414 117.263 879.973 102.557 909.832 102.557Z" fill="#98D300"/>
<defs>
<linearGradient id="paint0_linear_790_24459" x1="175.181" y1="0.974609" x2="175.181" y2="124.731" gradientUnits="userSpaceOnUse">
<stop stop-color="#B7F123"/>
<stop offset="1" stop-color="#3A935C"/>
</linearGradient>
<linearGradient id="paint1_linear_790_24459" x1="106.853" y1="54.8644" x2="131.406" y2="129.451" gradientUnits="userSpaceOnUse">
<stop stop-color="#B7F123"/>
<stop offset="1" stop-color="#028219"/>
</linearGradient>
<linearGradient id="paint2_linear_790_24459" x1="142.761" y1="112.968" x2="142.761" y2="285.477" gradientUnits="userSpaceOnUse">
<stop stop-color="#98D300"/>
<stop offset="1" stop-color="#044810"/>
</linearGradient>
<linearGradient id="paint3_linear_790_24459" x1="142.761" y1="112.968" x2="142.761" y2="285.477" gradientUnits="userSpaceOnUse">
<stop stop-color="#98D300"/>
<stop offset="1" stop-color="#044810"/>
</linearGradient>
</defs>
</svg>
