<svg width="30" height="28" viewBox="0 0 30 28" fill="none" xmlns="http://www.w3.org/2000/svg">
<g filter="url(#filter0_d_511_1149)">
<path d="M19.8309 0.976562C14.475 2.26836 14.6049 7.43553 15.3394 9.85765C15.3394 5.98227 17.3733 3.75751 18.3903 3.12955C16.5598 4.34958 16.4976 7.0468 16.6954 8.24291C19.6106 6.95111 20.0004 2.86043 19.8309 0.976562Z" fill="url(#paint0_linear_511_1149)"/>
<path d="M11.1307 5.29974C14.4351 5.07482 15.2852 8.24664 15.2972 9.86066C14.6037 7.50021 13.0385 6.52935 12.3426 6.33898C13.6113 6.7363 14.1296 8.36741 14.2302 9.1333C12.3262 8.89718 11.3706 6.47921 11.1307 5.29974Z" fill="url(#paint1_linear_511_1149)"/>
<path d="M6.43652 16.9004C7.05069 17.2476 7.70679 17.5773 8.40039 17.8779C7.84225 19.5777 7.30033 20.6313 7.11914 20.9766H5C5.60404 19.1256 6.05309 17.9941 6.43652 16.9004ZM14.874 19.4541C15.3844 19.4848 15.9019 19.4949 16.4258 19.4805C16.4747 19.9688 16.5874 20.4687 16.7793 20.9766H14.6611C14.7879 20.5807 14.8746 20.0586 14.874 19.4541ZM24.0703 17.5068C24.3395 19.0323 24.6506 20.3108 25 20.9766H22.7119C22.527 20.324 22.2945 19.4076 22.0654 18.3828C22.731 18.137 23.3997 17.8461 24.0703 17.5068ZM9.66113 8.59668C11.3843 12.0056 16.119 16.778 21.2715 8.59668H23.0508C23.1351 9.83511 23.2859 11.6031 23.4951 13.4336C22.7804 13.8696 22.0723 14.2324 21.3721 14.5283C21.2387 13.4379 21.1852 12.4228 21.2715 11.6465C20.1006 12.3547 18.4172 13.7565 17.3662 15.5713C16.1345 15.7005 14.9527 15.6557 13.8389 15.4883C13.7588 15.4762 13.6791 15.4625 13.5996 15.4492C12.7994 14.2492 11.5519 13.0446 9.66113 12.0059C9.57706 12.7432 9.46996 13.4382 9.35156 14.0908C8.67332 13.7662 8.04682 13.4094 7.47949 13.043C7.70659 11.9122 7.94615 10.497 8.2207 8.59668H9.66113Z" fill="url(#paint2_linear_511_1149)"/>
<path d="M6.43652 16.9004L6.81464 16.2315L6.01526 15.7796L5.71145 16.6462L6.43652 16.9004ZM8.40039 17.8779L9.13038 18.1176L9.34904 17.4517L8.70597 17.173L8.40039 17.8779ZM7.11914 20.9766V21.7449H7.58363L7.79948 21.3336L7.11914 20.9766ZM5 20.9766L4.26957 20.7382L3.94104 21.7449H5V20.9766ZM14.874 19.4541L14.9202 18.6871L14.1049 18.6381L14.1057 19.4549L14.874 19.4541ZM16.4258 19.4805L17.1903 19.4038L17.119 18.6927L16.4046 18.7124L16.4258 19.4805ZM16.7793 20.9766V21.7449H17.891L17.498 20.705L16.7793 20.9766ZM14.6611 20.9766L13.9294 20.7422L13.6083 21.7449H14.6611V20.9766ZM24.0703 17.5068L24.827 17.3733L24.6471 16.354L23.7235 16.8212L24.0703 17.5068ZM25 20.9766V21.7449H26.271L25.6803 20.6195L25 20.9766ZM22.7119 20.9766L21.9727 21.1861L22.1311 21.7449H22.7119V20.9766ZM22.0654 18.3828L21.7992 17.6621L21.1691 17.8948L21.3156 18.5504L22.0654 18.3828ZM9.66113 8.59668L10.3468 8.25005L10.1337 7.82834H9.66113V8.59668ZM21.2715 8.59668V7.82834H20.8474L20.6213 8.18722L21.2715 8.59668ZM23.0508 8.59668L23.8173 8.54449L23.7686 7.82834H23.0508V8.59668ZM23.4951 13.4336L23.8952 14.0895L24.3142 13.834L24.2585 13.3463L23.4951 13.4336ZM21.3721 14.5283L20.6094 14.6216L20.7331 15.6326L21.6712 15.236L21.3721 14.5283ZM21.2715 11.6465L22.0351 11.7314L22.2073 10.1825L20.8738 10.9891L21.2715 11.6465ZM17.3662 15.5713L17.4464 16.3354L17.8352 16.2946L18.0311 15.9563L17.3662 15.5713ZM13.8389 15.4883L13.7247 16.2481L13.7247 16.2481L13.8389 15.4883ZM13.5996 15.4492L12.9604 15.8755L13.1449 16.1522L13.4729 16.207L13.5996 15.4492ZM9.66113 12.0059L10.0311 11.3325L9.02747 10.7811L8.89774 11.9188L9.66113 12.0059ZM9.35156 14.0908L9.01984 14.7839L9.92785 15.2185L10.1076 14.228L9.35156 14.0908ZM7.47949 13.043L6.72619 12.8917L6.62319 13.4046L7.06261 13.6884L7.47949 13.043ZM8.2207 8.59668V7.82834H7.5554L7.46026 8.48681L8.2207 8.59668ZM6.43652 16.9004L6.05841 17.5693C6.69517 17.9292 7.37545 18.2711 8.09481 18.5829L8.40039 17.8779L8.70597 17.173C8.03813 16.8835 7.40621 16.5659 6.81464 16.2315L6.43652 16.9004ZM8.40039 17.8779L7.6704 17.6382C7.12949 19.2855 6.60717 20.2987 6.4388 20.6195L7.11914 20.9766L7.79948 21.3336C7.9935 20.9639 8.555 19.8699 9.13038 18.1176L8.40039 17.8779ZM7.11914 20.9766V20.2082H5V20.9766V21.7449H7.11914V20.9766ZM5 20.9766L5.73043 21.2149C6.33253 19.37 6.76595 18.2831 7.16159 17.1546L6.43652 16.9004L5.71145 16.6462C5.34023 17.705 4.87555 18.8813 4.26957 20.7382L5 20.9766ZM14.874 19.4541L14.8279 20.2211C15.3592 20.253 15.8992 20.2636 16.447 20.2485L16.4258 19.4805L16.4046 18.7124C15.9045 18.7262 15.4095 18.7166 14.9202 18.6871L14.874 19.4541ZM16.4258 19.4805L15.6613 19.5571C15.7168 20.1109 15.8445 20.6764 16.0606 21.2482L16.7793 20.9766L17.498 20.705C17.3303 20.2609 17.2327 19.8266 17.1903 19.4038L16.4258 19.4805ZM16.7793 20.9766V20.2082H14.6611V20.9766V21.7449H16.7793V20.9766ZM14.6611 20.9766L15.3929 21.2109C15.5467 20.7304 15.643 20.1281 15.6424 19.4534L14.874 19.4541L14.1057 19.4549C14.1062 19.9891 14.0291 20.4309 13.9294 20.7422L14.6611 20.9766ZM24.0703 17.5068L23.3137 17.6404C23.5803 19.1513 23.9064 20.5463 24.3197 21.3336L25 20.9766L25.6803 20.6195C25.3947 20.0753 25.0987 18.9133 24.827 17.3733L24.0703 17.5068ZM25 20.9766V20.2082H22.7119V20.9766V21.7449H25V20.9766ZM22.7119 20.9766L23.4511 20.7671C23.2708 20.1308 23.0418 19.2287 22.8153 18.2152L22.0654 18.3828L21.3156 18.5504C21.5472 19.5864 21.7831 20.5171 21.9727 21.1861L22.7119 20.9766ZM22.0654 18.3828L22.3316 19.1036C23.0252 18.8474 23.7207 18.5448 24.4172 18.1924L24.0703 17.5068L23.7235 16.8212C23.0786 17.1475 22.4369 17.4265 21.7992 17.6621L22.0654 18.3828ZM9.66113 8.59668L8.97542 8.94331C9.86901 10.711 11.6129 12.9938 13.965 13.6805C15.1811 14.0356 16.5192 13.9494 17.893 13.2026C19.2442 12.468 20.5928 11.1162 21.9216 9.00613L21.2715 8.59668L20.6213 8.18722C19.374 10.1678 18.1985 11.2874 17.159 11.8525C16.1421 12.4053 15.2227 12.4469 14.3957 12.2055C12.6615 11.6991 11.1764 9.89121 10.3468 8.25005L9.66113 8.59668ZM21.2715 8.59668V9.36502H23.0508V8.59668V7.82834H21.2715V8.59668ZM23.0508 8.59668L22.2842 8.64887C22.3693 9.89793 22.5211 11.6776 22.7317 13.5208L23.4951 13.4336L24.2585 13.3463C24.0507 11.5285 23.9009 9.77228 23.8173 8.54449L23.0508 8.59668ZM23.4951 13.4336L23.095 12.7776C22.4112 13.1948 21.7367 13.54 21.0729 13.8206L21.3721 14.5283L21.6712 15.236C22.4078 14.9247 23.1496 14.5444 23.8952 14.0895L23.4951 13.4336ZM21.3721 14.5283L22.1347 14.435C22.0037 13.3639 21.9587 12.4187 22.0351 11.7314L21.2715 11.6465L20.5078 11.5616C20.4117 12.4269 20.4736 13.5119 20.6094 14.6216L21.3721 14.5283ZM21.2715 11.6465L20.8738 10.9891C19.6247 11.7446 17.8336 13.2309 16.7013 15.1862L17.3662 15.5713L18.0311 15.9563C19.0007 14.2821 20.5765 12.9649 21.6692 12.3039L21.2715 11.6465ZM17.3662 15.5713L17.286 14.8071C16.1239 14.9291 15.0076 14.8869 13.953 14.7285L13.8389 15.4883L13.7247 16.2481C14.8979 16.4244 16.1451 16.472 17.4464 16.3354L17.3662 15.5713ZM13.8389 15.4883L13.9531 14.7285C13.8811 14.7177 13.811 14.7056 13.7263 14.6914L13.5996 15.4492L13.4729 16.207C13.5472 16.2195 13.6364 16.2348 13.7247 16.2481L13.8389 15.4883ZM13.5996 15.4492L14.2389 15.0229C13.3633 13.71 12.019 12.4246 10.0311 11.3325L9.66113 12.0059L9.29117 12.6793C11.0847 13.6646 12.2354 14.7884 12.9604 15.8755L13.5996 15.4492ZM9.66113 12.0059L8.89774 11.9188C8.81584 12.6371 8.71138 13.3153 8.59556 13.9537L9.35156 14.0908L10.1076 14.228C10.2285 13.5611 10.3383 12.8492 10.4245 12.0929L9.66113 12.0059ZM9.35156 14.0908L9.68329 13.3978C9.03639 13.0881 8.43826 12.7476 7.89637 12.3976L7.47949 13.043L7.06261 13.6884C7.65538 14.0713 8.31025 14.4442 9.01984 14.7839L9.35156 14.0908ZM7.47949 13.043L8.23279 13.1943C8.46358 12.0451 8.7054 10.6151 8.98115 8.70655L8.2207 8.59668L7.46026 8.48681C7.1869 10.3788 6.94961 11.7792 6.72619 12.8917L7.47949 13.043ZM8.2207 8.59668V9.36502H9.66113V8.59668V7.82834H8.2207V8.59668Z" fill="url(#paint3_linear_511_1149)"/>
</g>
<defs>
<filter id="filter0_d_511_1149" x="0.868046" y="0.976562" width="28.4758" height="26.9153" filterUnits="userSpaceOnUse" color-interpolation-filters="sRGB">
<feFlood flood-opacity="0" result="BackgroundImageFix"/>
<feColorMatrix in="SourceAlpha" type="matrix" values="0 0 0 0 0 0 0 0 0 0 0 0 0 0 0 0 0 0 127 0" result="hardAlpha"/>
<feOffset dy="3.07336"/>
<feGaussianBlur stdDeviation="1.53668"/>
<feComposite in2="hardAlpha" operator="out"/>
<feColorMatrix type="matrix" values="0 0 0 0 0 0 0 0 0 0 0 0 0 0 0 0 0 0 0.25 0"/>
<feBlend mode="normal" in2="BackgroundImageFix" result="effect1_dropShadow_511_1149"/>
<feBlend mode="normal" in="SourceGraphic" in2="effect1_dropShadow_511_1149" result="shape"/>
</filter>
<linearGradient id="paint0_linear_511_1149" x1="17.418" y1="0.976562" x2="17.418" y2="9.85765" gradientUnits="userSpaceOnUse">
<stop stop-color="#B7F123"/>
<stop offset="1" stop-color="#3A935C"/>
</linearGradient>
<linearGradient id="paint1_linear_511_1149" x1="12.5152" y1="4.84396" x2="14.2773" y2="10.1964" gradientUnits="userSpaceOnUse">
<stop stop-color="#B7F123"/>
<stop offset="1" stop-color="#028219"/>
</linearGradient>
<linearGradient id="paint2_linear_511_1149" x1="15" y1="8.59668" x2="15" y2="20.9765" gradientUnits="userSpaceOnUse">
<stop stop-color="#98D300"/>
<stop offset="1" stop-color="#044810"/>
</linearGradient>
<linearGradient id="paint3_linear_511_1149" x1="15" y1="8.59668" x2="15" y2="20.9765" gradientUnits="userSpaceOnUse">
<stop stop-color="#98D300"/>
<stop offset="1" stop-color="#044810"/>
</linearGradient>
</defs>
</svg>
