<svg width="1607" height="261" viewBox="0 0 1607 261" fill="none" xmlns="http://www.w3.org/2000/svg">
<path d="M168.336 19.6025C108.553 34.0212 110.004 91.6959 118.202 118.731C118.202 75.4749 140.905 50.6427 152.257 43.6337C131.824 57.2513 131.131 87.3569 133.338 100.708C165.878 86.2889 170.229 40.6298 168.336 19.6025Z" fill="url(#paint0_linear_804_1217)"/>
<path d="M71.2174 67.8548C108.102 65.3443 117.59 100.747 117.724 118.763C109.983 92.4159 92.5124 81.5794 84.7445 79.4545C98.9056 83.8893 104.691 102.095 105.814 110.644C84.5618 108.008 73.8945 81.0197 71.2174 67.8548Z" fill="url(#paint1_linear_804_1217)"/>
<path d="M17.0996 186.456C20.078 188.494 23.1962 190.45 26.4404 192.307C30.0376 194.366 33.8116 196.319 37.7451 198.154C33.9426 221.593 30.7414 236.509 29.6484 240.847H5C10.6738 220.769 14.4691 203.083 17.0996 186.456ZM103.618 214.542C110.803 214.999 118.166 215.073 125.667 214.719C124.205 223.171 124.278 231.943 126.485 240.847H102.837C104.343 235.08 105.183 225.703 103.618 214.542ZM214.338 190.046C216.908 205.752 220.396 222.388 225.242 240.847H199.701C198.989 237.676 195.535 224.082 191.695 200.456C199.234 197.494 206.793 194.037 214.338 190.046ZM45.0264 102.668C65.9997 137.717 126.107 193.986 183.62 102.668H206.485C207.532 126.264 208.71 147.99 211.595 171.022C204.047 175.313 196.488 179.005 188.958 182.146C187.2 169.353 185.473 154.531 184 137.717C171.381 144.688 143.945 167.373 131.303 196.319C120.17 197.24 109.367 197.112 99.0459 196.122C91.9214 176.353 76.5428 154.481 46.0264 137.717C44.2665 153.152 42.4138 167.148 40.6104 179.518C38.8212 178.598 37.0775 177.655 35.3838 176.686C29.5352 173.338 24.3435 169.747 19.8428 166.034C22.1572 145.232 22.996 125.279 23.9219 103.23L23.9453 102.668H45.0264Z" fill="url(#paint2_linear_804_1217)"/>
<path d="M17.0996 186.456L18.843 183.908L14.8132 181.151L14.0502 185.974L17.0996 186.456ZM26.4404 192.307L24.9066 194.986L24.9067 194.986L26.4404 192.307ZM37.7451 198.154L40.7926 198.649L41.1665 196.344L39.0506 195.357L37.7451 198.154ZM29.6484 240.847V243.934H32.0543L32.6422 241.601L29.6484 240.847ZM5 240.847L2.02906 240.007L0.919324 243.934H5V240.847ZM103.618 214.542L103.814 211.461L100.035 211.221L100.561 214.971L103.618 214.542ZM125.667 214.719L128.709 215.245L129.365 211.453L125.521 211.635L125.667 214.719ZM126.485 240.847V243.934H130.431L129.482 240.104L126.485 240.847ZM102.837 240.847L99.8499 240.066L98.8394 243.934H102.837V240.847ZM214.338 190.046L217.385 189.547L216.691 185.309L212.894 187.317L214.338 190.046ZM225.242 240.847V243.934H229.245L228.228 240.063L225.242 240.847ZM199.701 240.847L196.689 241.523L197.23 243.934H199.701V240.847ZM191.695 200.456L190.566 197.583L188.248 198.493L188.648 200.951L191.695 200.456ZM45.0264 102.668L47.6756 101.083L46.7768 99.5807H45.0264V102.668ZM183.62 102.668V99.5807H181.916L181.008 101.023L183.62 102.668ZM206.485 102.668L209.57 102.531L209.439 99.5807H206.485V102.668ZM211.595 171.022L213.121 173.706L214.915 172.686L214.658 170.639L211.595 171.022ZM188.958 182.146L185.899 182.566L186.445 186.539L190.146 184.995L188.958 182.146ZM184 137.717L187.076 137.447L186.661 132.719L182.507 135.014L184 137.717ZM131.303 196.319L131.557 199.396L133.394 199.244L134.132 197.555L131.303 196.319ZM99.0459 196.122L96.1415 197.169L96.8044 199.008L98.7511 199.195L99.0459 196.122ZM46.0264 137.717L47.5129 135.011L43.4802 132.796L42.9589 137.367L46.0264 137.717ZM40.6104 179.518L39.1993 182.264L43.0421 184.238L43.6654 179.963L40.6104 179.518ZM35.3838 176.686L33.85 179.365L33.85 179.365L35.3838 176.686ZM19.8428 166.034L16.7744 165.693L16.5897 167.353L17.8783 168.416L19.8428 166.034ZM23.9219 103.23L27.0065 103.36L27.0065 103.359L23.9219 103.23ZM23.9453 102.668V99.5807H20.984L20.8607 102.539L23.9453 102.668ZM17.0996 186.456L15.3562 189.004C18.4036 191.089 21.5919 193.088 24.9066 194.986L26.4404 192.307L27.9742 189.627C24.8006 187.811 21.7523 185.899 18.843 183.908L17.0996 186.456ZM26.4404 192.307L24.9067 194.986C28.5812 197.089 32.4315 199.082 36.4396 200.952L37.7451 198.154L39.0506 195.357C35.1916 193.556 31.494 191.642 27.9742 189.627L26.4404 192.307ZM37.7451 198.154L34.6977 197.66C30.9019 221.058 27.717 235.877 26.6547 240.092L29.6484 240.847L32.6422 241.601C33.7657 237.142 36.9834 222.129 40.7926 198.649L37.7451 198.154ZM29.6484 240.847V237.759H5V240.847V243.934H29.6484V240.847ZM5 240.847L7.97094 241.686C13.6769 221.495 17.4988 203.69 20.149 186.938L17.0996 186.456L14.0502 185.974C11.4394 202.477 7.67071 220.044 2.02906 240.007L5 240.847ZM103.618 214.542L103.422 217.623C110.72 218.087 118.197 218.162 125.813 217.803L125.667 214.719L125.521 211.635C118.136 211.984 110.887 211.911 103.814 211.461L103.618 214.542ZM125.667 214.719L122.625 214.192C121.097 223.023 121.169 232.23 123.489 241.59L126.485 240.847L129.482 240.104C127.388 231.657 127.312 223.319 128.709 215.245L125.667 214.719ZM126.485 240.847V237.759H102.837V240.847V243.934H126.485V240.847ZM102.837 240.847L105.824 241.627C107.447 235.416 108.289 225.623 106.676 214.113L103.618 214.542L100.561 214.971C102.077 225.783 101.24 234.744 99.8499 240.066L102.837 240.847ZM214.338 190.046L211.291 190.545C213.878 206.35 217.386 223.081 222.256 241.631L225.242 240.847L228.228 240.063C223.406 221.695 219.939 205.154 217.385 189.547L214.338 190.046ZM225.242 240.847V237.759H199.701V240.847V243.934H225.242V240.847ZM199.701 240.847L202.713 240.17C201.993 236.965 198.565 223.475 194.743 199.961L191.695 200.456L188.648 200.951C192.506 224.69 195.984 238.387 196.689 241.523L199.701 240.847ZM191.695 200.456L192.824 203.33C200.47 200.326 208.134 196.82 215.781 192.775L214.338 190.046L212.894 187.317C205.451 191.254 197.997 194.663 190.566 197.583L191.695 200.456ZM45.0264 102.668L42.3772 104.253C53.032 122.059 73.8355 145.679 99.7796 153.026C112.886 156.737 127.244 156.27 142.031 148.883C156.746 141.532 171.665 127.443 186.232 104.313L183.62 102.668L181.008 101.023C166.819 123.552 152.657 136.673 139.271 143.36C125.957 150.01 113.194 150.407 101.462 147.085C77.7309 140.365 57.9941 118.326 47.6756 101.083L45.0264 102.668ZM183.62 102.668V105.755H206.485V102.668V99.5807H183.62V102.668ZM206.485 102.668L203.401 102.805C204.448 126.412 205.63 148.243 208.531 171.406L211.595 171.022L214.658 170.639C211.79 147.738 210.616 126.117 209.57 102.531L206.485 102.668ZM211.595 171.022L210.069 168.339C202.63 172.568 195.183 176.204 187.77 179.296L188.958 182.146L190.146 184.995C197.792 181.806 205.464 178.059 213.121 173.706L211.595 171.022ZM188.958 182.146L192.017 181.725C190.265 168.981 188.544 154.21 187.076 137.447L184 137.717L180.924 137.986C182.402 154.853 184.135 169.724 185.899 182.566L188.958 182.146ZM184 137.717L182.507 135.014C175.883 138.674 165.638 146.287 155.461 156.61C145.274 166.945 134.992 180.159 128.474 195.084L131.303 196.319L134.132 197.555C140.256 183.533 150.013 170.932 159.859 160.945C169.716 150.946 179.497 143.731 185.493 140.419L184 137.717ZM131.303 196.319L131.048 193.243C120.103 194.148 109.483 194.022 99.3407 193.049L99.0459 196.122L98.7511 199.195C109.25 200.203 120.238 200.333 131.557 199.396L131.303 196.319ZM99.0459 196.122L101.95 195.075C94.5732 174.605 78.6939 152.141 47.5129 135.011L46.0264 137.717L44.5399 140.423C74.3916 156.822 89.2696 178.1 96.1415 197.169L99.0459 196.122ZM46.0264 137.717L42.9589 137.367C41.2029 152.768 39.3544 166.733 37.5554 179.072L40.6104 179.518L43.6654 179.963C45.4732 167.563 47.3301 153.535 49.0938 138.067L46.0264 137.717ZM40.6104 179.518L42.0214 176.772C40.2703 175.872 38.5677 174.951 36.9176 174.006L35.3838 176.686L33.85 179.365C35.5873 180.359 37.3722 181.325 39.1993 182.264L40.6104 179.518ZM35.3838 176.686L36.9176 174.006C31.2102 170.739 26.164 167.246 21.8073 163.653L19.8428 166.034L17.8783 168.416C22.5229 172.247 27.8603 175.936 33.85 179.365L35.3838 176.686ZM19.8428 166.034L22.9111 166.376C25.2392 145.451 26.0813 125.392 27.0065 103.36L23.9219 103.23L20.8373 103.101C19.9108 125.166 19.0751 145.014 16.7744 165.693L19.8428 166.034ZM23.9219 103.23L27.0065 103.359L27.0299 102.796L23.9453 102.668L20.8607 102.539L20.8373 103.102L23.9219 103.23ZM23.9453 102.668V105.755H45.0264V102.668V99.5807H23.9453V102.668Z" fill="url(#paint3_linear_804_1217)"/>
<path d="M334.294 147H277.161V34.0822H334.294C371.54 34.0822 395.135 54.8119 395.135 90.5411C395.135 126.27 371.54 147 334.294 147ZM334.294 62.5645H308.846V118.518H334.294C354.35 118.518 361.26 115.99 361.26 90.5411C361.26 65.0925 354.35 62.5645 334.294 62.5645ZM435.203 54.3063H403.518V34.0822H435.203V54.3063ZM435.203 147H403.518V62.0589H435.203V147ZM492.681 148.685C463.861 148.685 443.637 136.382 443.637 104.529C443.637 76.8899 463.693 60.3735 492.006 60.3735C521.331 60.3735 540.039 75.036 540.039 102.338C540.039 105.204 539.87 107.395 539.533 110.428H472.962C473.468 120.709 478.018 123.574 491.501 123.574C504.309 123.574 507.68 121.383 507.68 116.327V114.473H539.365V116.495C539.365 135.371 521.331 148.685 492.681 148.685ZM491.332 84.6424C479.704 84.6424 474.816 87.1704 473.468 94.4174H509.365C508.186 87.1704 503.13 84.6424 491.332 84.6424ZM612.054 147H589.808C568.572 147 555.932 136.719 555.932 114.641V88.0131H543.461V62.0589H555.932V47.3964H587.617V62.0589H612.054V88.0131H587.617V110.091C587.617 116.832 589.639 118.518 596.886 118.518H612.054V147ZM651.301 54.3063H619.617V34.0822H651.301V54.3063ZM651.301 147H619.617V62.0589H651.301V147ZM709.116 148.685C678.949 148.685 659.736 132 659.736 104.529C659.736 76.8899 678.949 60.3735 709.116 60.3735C738.104 60.3735 756.643 75.2045 756.643 97.9566V100.653H725.127V99.3049C725.127 90.5411 718.723 88.6872 708.442 88.6872C696.813 88.6872 691.252 91.2153 691.252 104.529C691.252 117.675 696.813 120.203 708.442 120.203C718.723 120.203 725.127 118.518 725.127 109.754V108.237H756.643V111.102C756.643 133.686 738.104 148.685 709.116 148.685ZM796.794 54.3063H765.109V34.0822H796.794V54.3063ZM796.794 147H765.109V62.0589H796.794V147ZM938.83 147H907.145V62.0589H936.807V87.8446H938.492C940.346 73.6877 949.616 60.3735 972.368 60.3735C995.288 60.3735 1006.07 74.1933 1006.07 92.5635V147H974.39V104.192C974.39 92.395 970.008 88.6872 956.189 88.6872C942.2 88.6872 938.83 92.2265 938.83 103.181V147Z" fill="#98D300"/>
<path d="M1047.13 147H1015.44V34.0822H1058.42L1079.15 80.9347L1090.27 110.091H1092.46L1103.08 80.9347L1122.8 34.0822H1165.77V147H1134.09V100.316L1135.27 81.4403H1133.08L1126.67 100.316L1109.82 140.259H1071.39L1054.54 100.316L1048.14 81.4403H1045.95L1047.13 100.316V147ZM1223.27 148.685C1194.45 148.685 1174.23 136.382 1174.23 104.529C1174.23 76.8899 1194.28 60.3735 1222.59 60.3735C1251.92 60.3735 1270.63 75.036 1270.63 102.338C1270.63 105.204 1270.46 107.395 1270.12 110.428H1203.55C1204.06 120.709 1208.61 123.574 1222.09 123.574C1234.9 123.574 1238.27 121.383 1238.27 116.327V114.473H1269.95V116.495C1269.95 135.371 1251.92 148.685 1223.27 148.685ZM1221.92 84.6424C1210.29 84.6424 1205.4 87.1704 1204.06 94.4174H1239.95C1238.77 87.1704 1233.72 84.6424 1221.92 84.6424ZM1316.86 137.562C1291.58 137.562 1277.42 123.068 1277.42 98.7993C1277.42 74.8675 1292.59 60.3735 1317.7 60.3735C1334.89 60.3735 1346.35 67.2834 1348.71 81.9459H1350.39V62.0589H1380.06V132.675C1380.06 163.011 1362.02 177.336 1329.33 177.336C1299.67 177.336 1282.48 164.865 1282.48 142.618H1314.16C1314.16 149.528 1315 151.213 1331.52 151.213C1345.17 151.213 1348.37 149.191 1348.37 134.866V117.001H1346.69C1344.5 129.304 1335.56 137.562 1316.86 137.562ZM1309.44 98.7993C1309.44 107.226 1313.49 110.428 1328.32 110.428C1342.47 110.428 1348.37 108.743 1348.37 99.8105V98.6308C1348.37 89.5299 1342.47 87.676 1328.32 87.676C1313.49 87.676 1309.44 90.5411 1309.44 98.7993ZM1421.88 147H1390.2V34.0822H1421.88V87.8446H1423.57C1426.27 73.5192 1435.7 60.3735 1457.44 60.3735C1480.03 60.3735 1490.81 74.6989 1490.81 93.5747V147H1459.13V104.192C1459.13 92.395 1454.58 88.6872 1440.09 88.6872C1425.42 88.6872 1421.88 92.2265 1421.88 103.181V147Z" fill="#044810"/>
<path d="M296.921 199.044H304.673V238.368H298.774L281.921 214.324V238.368H274.168V199.044H280.067L296.921 223.032V199.044ZM330.17 210.279H337.416V238.368H330.17V235.222C328.409 237.844 325.619 239.155 321.799 239.155C318.728 239.155 316.181 238.125 314.159 236.065C312.174 234.005 311.181 231.159 311.181 227.526V210.279H318.428V226.627C318.428 228.5 318.934 229.941 319.945 230.953C320.956 231.926 322.305 232.413 323.99 232.413C325.863 232.413 327.361 231.833 328.484 230.672C329.608 229.511 330.17 227.769 330.17 225.447V210.279ZM360.121 217.245H353.773V228.93C353.773 229.904 354.016 230.616 354.503 231.065C354.99 231.514 355.701 231.777 356.638 231.852C357.574 231.889 358.735 231.87 360.121 231.795V238.368C355.14 238.93 351.619 238.462 349.559 236.964C347.537 235.466 346.526 232.788 346.526 228.93V217.245H341.638V210.279H346.526V204.605L353.773 202.414V210.279H360.121V217.245ZM372.916 215.11C373.59 213.313 374.695 211.965 376.231 211.066C377.804 210.167 379.545 209.717 381.455 209.717V217.807C379.246 217.545 377.261 217.994 375.5 219.155C373.778 220.316 372.916 222.245 372.916 224.942V238.368H365.669V210.279H372.916V215.11ZM389.289 206.908C388.09 206.908 387.042 206.478 386.143 205.616C385.282 204.718 384.851 203.669 384.851 202.47C384.851 201.272 385.282 200.223 386.143 199.324C387.042 198.426 388.09 197.976 389.289 197.976C390.525 197.976 391.574 198.426 392.435 199.324C393.334 200.223 393.783 201.272 393.783 202.47C393.783 203.669 393.334 204.718 392.435 205.616C391.574 206.478 390.525 206.908 389.289 206.908ZM385.694 238.368V210.279H392.941V238.368H385.694ZM415.191 209.493C418.262 209.493 420.79 210.523 422.775 212.582C424.797 214.642 425.809 217.489 425.809 221.122V238.368H418.562V222.02C418.562 220.148 418.056 218.725 417.045 217.751C416.034 216.74 414.685 216.234 413 216.234C411.127 216.234 409.629 216.815 408.506 217.976C407.382 219.137 406.82 220.878 406.82 223.2V238.368H399.573V199.044H406.82V213.425C408.581 210.803 411.371 209.493 415.191 209.493ZM450.535 210.279H457.782V238.368H450.535V235.222C448.775 237.844 445.985 239.155 442.165 239.155C439.094 239.155 436.547 238.125 434.525 236.065C432.54 234.005 431.547 231.159 431.547 227.526V210.279H438.794V226.627C438.794 228.5 439.3 229.941 440.311 230.953C441.322 231.926 442.67 232.413 444.356 232.413C446.228 232.413 447.726 231.833 448.85 230.672C449.973 229.511 450.535 227.769 450.535 225.447V210.279ZM480.767 209.493C484.55 209.493 487.771 210.935 490.43 213.818C493.127 216.665 494.475 220.166 494.475 224.324C494.475 228.481 493.127 232.001 490.43 234.885C487.771 237.731 484.55 239.155 480.767 239.155C476.835 239.155 473.801 237.788 471.667 235.054V238.368H464.42V199.044H471.667V213.594C473.801 210.86 476.835 209.493 480.767 209.493ZM473.857 230.054C475.318 231.514 477.172 232.245 479.419 232.245C481.666 232.245 483.52 231.514 484.981 230.054C486.479 228.556 487.228 226.646 487.228 224.324C487.228 222.002 486.479 220.11 484.981 218.65C483.52 217.152 481.666 216.403 479.419 216.403C477.172 216.403 475.318 217.152 473.857 218.65C472.397 220.11 471.667 222.002 471.667 224.324C471.667 226.646 472.397 228.556 473.857 230.054ZM499.923 224.885V217.919H520.989V224.885H499.923ZM527.387 214.661L531.601 199.044H537.499L535.252 214.661H527.387ZM537.78 214.661L541.993 199.044H547.892L545.645 214.661H537.78ZM585.413 199.044L571.93 223.032V238.368H564.234V223.032L550.807 199.044H559.571L568.11 215.448L576.649 199.044H585.413ZM607.181 234.885C604.297 237.731 600.777 239.155 596.62 239.155C592.462 239.155 588.942 237.731 586.058 234.885C583.212 232.001 581.789 228.481 581.789 224.324C581.789 220.166 583.212 216.665 586.058 213.818C588.942 210.935 592.462 209.493 596.62 209.493C600.777 209.493 604.297 210.935 607.181 213.818C610.065 216.665 611.507 220.166 611.507 224.324C611.507 228.481 610.065 232.001 607.181 234.885ZM591.17 229.885C592.631 231.346 594.447 232.076 596.62 232.076C598.792 232.076 600.608 231.346 602.069 229.885C603.529 228.425 604.26 226.571 604.26 224.324C604.26 222.077 603.529 220.223 602.069 218.762C600.608 217.301 598.792 216.571 596.62 216.571C594.447 216.571 592.631 217.301 591.17 218.762C589.747 220.223 589.035 222.077 589.035 224.324C589.035 226.571 589.747 228.425 591.17 229.885ZM635.144 210.279H642.391V238.368H635.144V235.222C633.383 237.844 630.593 239.155 626.773 239.155C623.702 239.155 621.155 238.125 619.133 236.065C617.148 234.005 616.155 231.159 616.155 227.526V210.279H623.402V226.627C623.402 228.5 623.908 229.941 624.919 230.953C625.93 231.926 627.279 232.413 628.964 232.413C630.837 232.413 632.335 231.833 633.458 230.672C634.582 229.511 635.144 227.769 635.144 225.447V210.279ZM656.275 215.11C656.949 213.313 658.054 211.965 659.589 211.066C661.162 210.167 662.904 209.717 664.814 209.717V217.807C662.604 217.545 660.619 217.994 658.859 219.155C657.136 220.316 656.275 222.245 656.275 224.942V238.368H649.028V210.279H656.275V215.11ZM709.444 199.044V206.459H698.827V238.368H691.074V206.459H680.513V199.044H709.444ZM717.116 215.11C717.79 213.313 718.895 211.965 720.431 211.066C722.004 210.167 723.745 209.717 725.655 209.717V217.807C723.445 217.545 721.46 217.994 719.7 219.155C717.977 220.316 717.116 222.245 717.116 224.942V238.368H709.869V210.279H717.116V215.11ZM748.432 210.279H755.679V238.368H748.432V235.222C746.672 237.844 743.882 239.155 740.062 239.155C736.991 239.155 734.444 238.125 732.421 236.065C730.437 234.005 729.444 231.159 729.444 227.526V210.279H736.691V226.627C736.691 228.5 737.197 229.941 738.208 230.953C739.219 231.926 740.567 232.413 742.253 232.413C744.125 232.413 745.623 231.833 746.747 230.672C747.87 229.511 748.432 227.769 748.432 225.447V210.279ZM768.782 218.256C768.782 219.005 769.269 219.623 770.243 220.11C771.254 220.56 772.471 220.972 773.894 221.346C775.318 221.683 776.741 222.133 778.164 222.695C779.587 223.219 780.786 224.118 781.759 225.391C782.771 226.664 783.276 228.256 783.276 230.166C783.276 233.05 782.19 235.278 780.018 236.851C777.883 238.387 775.205 239.155 771.984 239.155C766.217 239.155 762.284 236.926 760.187 232.469L766.479 228.93C767.303 231.365 769.138 232.582 771.984 232.582C774.569 232.582 775.861 231.777 775.861 230.166C775.861 229.417 775.355 228.818 774.344 228.368C773.37 227.882 772.172 227.451 770.748 227.076C769.325 226.702 767.902 226.234 766.479 225.672C765.056 225.11 763.839 224.23 762.827 223.032C761.854 221.796 761.367 220.26 761.367 218.425C761.367 215.654 762.378 213.481 764.4 211.908C766.46 210.298 769.007 209.493 772.041 209.493C774.325 209.493 776.404 210.017 778.276 211.066C780.149 212.077 781.628 213.537 782.714 215.448L776.535 218.818C775.636 216.908 774.138 215.953 772.041 215.953C771.104 215.953 770.318 216.159 769.681 216.571C769.082 216.983 768.782 217.545 768.782 218.256ZM803.181 217.245H796.833V228.93C796.833 229.904 797.076 230.616 797.563 231.065C798.05 231.514 798.761 231.777 799.698 231.852C800.634 231.889 801.795 231.87 803.181 231.795V238.368C798.2 238.93 794.679 238.462 792.619 236.964C790.597 235.466 789.586 232.788 789.586 228.93V217.245H784.698V210.279H789.586V204.605L796.833 202.414V210.279H803.181V217.245ZM813.536 227.301C814.51 230.822 817.15 232.582 821.457 232.582C824.228 232.582 826.326 231.646 827.749 229.773L833.591 233.144C830.82 237.151 826.738 239.155 821.345 239.155C816.701 239.155 812.974 237.75 810.165 234.941C807.356 232.132 805.952 228.593 805.952 224.324C805.952 220.092 807.338 216.571 810.109 213.762C812.881 210.916 816.438 209.493 820.783 209.493C824.903 209.493 828.292 210.916 830.951 213.762C833.648 216.609 834.996 220.129 834.996 224.324C834.996 225.26 834.902 226.252 834.715 227.301H813.536ZM813.424 221.683H827.749C827.337 219.773 826.476 218.35 825.165 217.414C823.891 216.477 822.431 216.009 820.783 216.009C818.835 216.009 817.225 216.515 815.952 217.526C814.678 218.5 813.836 219.886 813.424 221.683ZM861.127 199.044H868.374V238.368H861.127V235.054C858.992 237.788 855.959 239.155 852.026 239.155C848.244 239.155 845.004 237.731 842.307 234.885C839.648 232.001 838.319 228.481 838.319 224.324C838.319 220.166 839.648 216.665 842.307 213.818C845.004 210.935 848.244 209.493 852.026 209.493C855.959 209.493 858.992 210.86 861.127 213.594V199.044ZM847.757 230.054C849.255 231.514 851.127 232.245 853.374 232.245C855.622 232.245 857.475 231.514 858.936 230.054C860.397 228.556 861.127 226.646 861.127 224.324C861.127 222.002 860.397 220.11 858.936 218.65C857.475 217.152 855.622 216.403 853.374 216.403C851.127 216.403 849.255 217.152 847.757 218.65C846.296 220.11 845.566 222.002 845.566 224.324C845.566 226.646 846.296 228.556 847.757 230.054ZM927.977 217.245V220.279C927.977 225.897 926.18 230.447 922.584 233.93C918.989 237.413 914.345 239.155 908.652 239.155C902.585 239.155 897.548 237.188 893.54 233.256C889.57 229.286 887.586 224.455 887.586 218.762C887.586 213.032 889.552 208.182 893.484 204.212C897.454 200.242 902.36 198.257 908.203 198.257C911.873 198.257 915.225 199.1 918.259 200.785C921.292 202.433 923.652 204.643 925.337 207.414L918.708 211.234C917.772 209.624 916.349 208.313 914.439 207.302C912.566 206.291 910.469 205.785 908.147 205.785C904.401 205.785 901.312 207.021 898.877 209.493C896.48 211.927 895.282 215.017 895.282 218.762C895.282 222.47 896.499 225.541 898.933 227.975C901.405 230.372 904.664 231.571 908.708 231.571C911.705 231.571 914.176 230.915 916.124 229.604C918.109 228.256 919.457 226.421 920.169 224.099H908.259V217.245H927.977ZM951.968 210.279H959.215V238.368H951.968V235.222C950.207 237.844 947.417 239.155 943.597 239.155C940.526 239.155 937.979 238.125 935.957 236.065C933.972 234.005 932.98 231.159 932.98 227.526V210.279H940.226V226.627C940.226 228.5 940.732 229.941 941.743 230.953C942.754 231.926 944.103 232.413 945.788 232.413C947.661 232.413 949.159 231.833 950.282 230.672C951.406 229.511 951.968 227.769 951.968 225.447V210.279ZM969.447 206.908C968.249 206.908 967.2 206.478 966.301 205.616C965.44 204.718 965.009 203.669 965.009 202.47C965.009 201.272 965.44 200.223 966.301 199.324C967.2 198.426 968.249 197.976 969.447 197.976C970.683 197.976 971.732 198.426 972.593 199.324C973.492 200.223 973.942 201.272 973.942 202.47C973.942 203.669 973.492 204.718 972.593 205.616C971.732 206.478 970.683 206.908 969.447 206.908ZM965.852 238.368V210.279H973.099V238.368H965.852ZM1001.02 199.044H1008.27V238.368H1001.02V235.054C998.889 237.788 995.855 239.155 991.923 239.155C988.14 239.155 984.9 237.731 982.204 234.885C979.545 232.001 978.215 228.481 978.215 224.324C978.215 220.166 979.545 216.665 982.204 213.818C984.9 210.935 988.14 209.493 991.923 209.493C995.855 209.493 998.889 210.86 1001.02 213.594V199.044ZM987.653 230.054C989.151 231.514 991.024 232.245 993.271 232.245C995.518 232.245 997.372 231.514 998.832 230.054C1000.29 228.556 1001.02 226.646 1001.02 224.324C1001.02 222.002 1000.29 220.11 998.832 218.65C997.372 217.152 995.518 216.403 993.271 216.403C991.024 216.403 989.151 217.152 987.653 218.65C986.192 220.11 985.462 222.002 985.462 224.324C985.462 226.646 986.192 228.556 987.653 230.054ZM1021.02 227.301C1022 230.822 1024.64 232.582 1028.94 232.582C1031.71 232.582 1033.81 231.646 1035.23 229.773L1041.08 233.144C1038.31 237.151 1034.22 239.155 1028.83 239.155C1024.19 239.155 1020.46 237.75 1017.65 234.941C1014.84 232.132 1013.44 228.593 1013.44 224.324C1013.44 220.092 1014.82 216.571 1017.59 213.762C1020.37 210.916 1023.92 209.493 1028.27 209.493C1032.39 209.493 1035.78 210.916 1038.44 213.762C1041.13 216.609 1042.48 220.129 1042.48 224.324C1042.48 225.26 1042.39 226.252 1042.2 227.301H1021.02ZM1020.91 221.683H1035.23C1034.82 219.773 1033.96 218.35 1032.65 217.414C1031.38 216.477 1029.92 216.009 1028.27 216.009C1026.32 216.009 1024.71 216.515 1023.44 217.526C1022.16 218.5 1021.32 219.886 1020.91 221.683ZM1087.93 199.044V206.459H1077.31V238.368H1069.56V206.459H1059V199.044H1087.93ZM1110.75 234.885C1107.87 237.731 1104.35 239.155 1100.19 239.155C1096.03 239.155 1092.51 237.731 1089.63 234.885C1086.78 232.001 1085.36 228.481 1085.36 224.324C1085.36 220.166 1086.78 216.665 1089.63 213.818C1092.51 210.935 1096.03 209.493 1100.19 209.493C1104.35 209.493 1107.87 210.935 1110.75 213.818C1113.64 216.665 1115.08 220.166 1115.08 224.324C1115.08 228.481 1113.64 232.001 1110.75 234.885ZM1094.74 229.885C1096.2 231.346 1098.02 232.076 1100.19 232.076C1102.36 232.076 1104.18 231.346 1105.64 229.885C1107.1 228.425 1107.83 226.571 1107.83 224.324C1107.83 222.077 1107.1 220.223 1105.64 218.762C1104.18 217.301 1102.36 216.571 1100.19 216.571C1098.02 216.571 1096.2 217.301 1094.74 218.762C1093.32 220.223 1092.61 222.077 1092.61 224.324C1092.61 226.571 1093.32 228.425 1094.74 229.885ZM1173.04 199.044V238.368H1165.34V212.863L1154.28 231.121H1153.38L1142.31 212.92V238.368H1134.56V199.044H1142.54L1153.83 217.638L1165.06 199.044H1173.04ZM1183.63 206.908C1182.43 206.908 1181.38 206.478 1180.48 205.616C1179.62 204.718 1179.19 203.669 1179.19 202.47C1179.19 201.272 1179.62 200.223 1180.48 199.324C1181.38 198.426 1182.43 197.976 1183.63 197.976C1184.86 197.976 1185.91 198.426 1186.77 199.324C1187.67 200.223 1188.12 201.272 1188.12 202.47C1188.12 203.669 1187.67 204.718 1186.77 205.616C1185.91 206.478 1184.86 206.908 1183.63 206.908ZM1180.03 238.368V210.279H1187.28V238.368H1180.03ZM1209.53 209.493C1212.6 209.493 1215.13 210.523 1217.11 212.582C1219.13 214.642 1220.15 217.489 1220.15 221.122V238.368H1212.9V222.02C1212.9 220.148 1212.39 218.725 1211.38 217.751C1210.37 216.74 1209.02 216.234 1207.34 216.234C1205.46 216.234 1203.97 216.815 1202.84 217.976C1201.72 219.137 1201.16 220.878 1201.16 223.2V238.368H1193.91V210.279H1201.16V213.425C1202.92 210.803 1205.71 209.493 1209.53 209.493ZM1247.62 199.044H1254.87V238.368H1247.62V235.054C1245.49 237.788 1242.46 239.155 1238.52 239.155C1234.74 239.155 1231.5 237.731 1228.81 234.885C1226.15 232.001 1224.82 228.481 1224.82 224.324C1224.82 220.166 1226.15 216.665 1228.81 213.818C1231.5 210.935 1234.74 209.493 1238.52 209.493C1242.46 209.493 1245.49 210.86 1247.62 213.594V199.044ZM1234.25 230.054C1235.75 231.514 1237.63 232.245 1239.87 232.245C1242.12 232.245 1243.97 231.514 1245.43 230.054C1246.89 228.556 1247.62 226.646 1247.62 224.324C1247.62 222.002 1246.89 220.11 1245.43 218.65C1243.97 217.152 1242.12 216.403 1239.87 216.403C1237.63 216.403 1235.75 217.152 1234.25 218.65C1232.79 220.11 1232.06 222.002 1232.06 224.324C1232.06 226.646 1232.79 228.556 1234.25 230.054ZM1276.61 205.223C1272.64 204.924 1270.66 206.515 1270.66 209.998V210.279H1276.61V217.245H1270.66V238.368H1263.41V217.245H1259.36V210.279H1263.41V209.998C1263.41 206.028 1264.51 203.013 1266.72 200.954C1268.93 198.894 1272.23 197.995 1276.61 198.257V205.223ZM1298.47 210.279H1305.72V238.368H1298.47V235.222C1296.71 237.844 1293.92 239.155 1290.1 239.155C1287.03 239.155 1284.48 238.125 1282.46 236.065C1280.48 234.005 1279.48 231.159 1279.48 227.526V210.279H1286.73V226.627C1286.73 228.5 1287.24 229.941 1288.25 230.953C1289.26 231.926 1290.61 232.413 1292.29 232.413C1294.16 232.413 1295.66 231.833 1296.79 230.672C1297.91 229.511 1298.47 227.769 1298.47 225.447V210.279ZM1312.36 238.368V197.358H1319.6V238.368H1312.36ZM1363.37 199.044H1371.12V238.368H1365.22L1348.37 214.324V238.368H1340.62V199.044H1346.52L1363.37 223.032V199.044ZM1396.62 210.279H1403.87V238.368H1396.62V235.222C1394.86 237.844 1392.07 239.155 1388.25 239.155C1385.18 239.155 1382.63 238.125 1380.61 236.065C1378.62 234.005 1377.63 231.159 1377.63 227.526V210.279H1384.88V226.627C1384.88 228.5 1385.38 229.941 1386.39 230.953C1387.41 231.926 1388.75 232.413 1390.44 232.413C1392.31 232.413 1393.81 231.833 1394.93 230.672C1396.06 229.511 1396.62 227.769 1396.62 225.447V210.279ZM1426.57 217.245H1420.22V228.93C1420.22 229.904 1420.47 230.616 1420.95 231.065C1421.44 231.514 1422.15 231.777 1423.09 231.852C1424.02 231.889 1425.18 231.87 1426.57 231.795V238.368C1421.59 238.93 1418.07 238.462 1416.01 236.964C1413.99 235.466 1412.97 232.788 1412.97 228.93V217.245H1408.09V210.279H1412.97V204.605L1420.22 202.414V210.279H1426.57V217.245ZM1439.37 215.11C1440.04 213.313 1441.14 211.965 1442.68 211.066C1444.25 210.167 1445.99 209.717 1447.9 209.717V217.807C1445.69 217.545 1443.71 217.994 1441.95 219.155C1440.23 220.316 1439.37 222.245 1439.37 224.942V238.368H1432.12V210.279H1439.37V215.11ZM1455.74 206.908C1454.54 206.908 1453.49 206.478 1452.59 205.616C1451.73 204.718 1451.3 203.669 1451.3 202.47C1451.3 201.272 1451.73 200.223 1452.59 199.324C1453.49 198.426 1454.54 197.976 1455.74 197.976C1456.97 197.976 1458.02 198.426 1458.88 199.324C1459.78 200.223 1460.23 201.272 1460.23 202.47C1460.23 203.669 1459.78 204.718 1458.88 205.616C1458.02 206.478 1456.97 206.908 1455.74 206.908ZM1452.14 238.368V210.279H1459.39V238.368H1452.14ZM1482.09 217.245H1475.74V228.93C1475.74 229.904 1475.98 230.616 1476.47 231.065C1476.96 231.514 1477.67 231.777 1478.61 231.852C1479.54 231.889 1480.7 231.87 1482.09 231.795V238.368C1477.11 238.93 1473.59 238.462 1471.53 236.964C1469.51 235.466 1468.49 232.788 1468.49 228.93V217.245H1463.61V210.279H1468.49V204.605L1475.74 202.414V210.279H1482.09V217.245ZM1490.79 206.908C1489.6 206.908 1488.55 206.478 1487.65 205.616C1486.79 204.718 1486.36 203.669 1486.36 202.47C1486.36 201.272 1486.79 200.223 1487.65 199.324C1488.55 198.426 1489.6 197.976 1490.79 197.976C1492.03 197.976 1493.08 198.426 1493.94 199.324C1494.84 200.223 1495.29 201.272 1495.29 202.47C1495.29 203.669 1494.84 204.718 1493.94 205.616C1493.08 206.478 1492.03 206.908 1490.79 206.908ZM1487.2 238.368V210.279H1494.45V238.368H1487.2ZM1525.01 234.885C1522.13 237.731 1518.61 239.155 1514.45 239.155C1510.29 239.155 1506.77 237.731 1503.89 234.885C1501.04 232.001 1499.62 228.481 1499.62 224.324C1499.62 220.166 1501.04 216.665 1503.89 213.818C1506.77 210.935 1510.29 209.493 1514.45 209.493C1518.61 209.493 1522.13 210.935 1525.01 213.818C1527.89 216.665 1529.34 220.166 1529.34 224.324C1529.34 228.481 1527.89 232.001 1525.01 234.885ZM1509 229.885C1510.46 231.346 1512.28 232.076 1514.45 232.076C1516.62 232.076 1518.44 231.346 1519.9 229.885C1521.36 228.425 1522.09 226.571 1522.09 224.324C1522.09 222.077 1521.36 220.223 1519.9 218.762C1518.44 217.301 1516.62 216.571 1514.45 216.571C1512.28 216.571 1510.46 217.301 1509 218.762C1507.58 220.223 1506.87 222.077 1506.87 224.324C1506.87 226.571 1507.58 228.425 1509 229.885ZM1550.05 209.493C1553.12 209.493 1555.65 210.523 1557.64 212.582C1559.66 214.642 1560.67 217.489 1560.67 221.122V238.368H1553.42V222.02C1553.42 220.148 1552.92 218.725 1551.91 217.751C1550.89 216.74 1549.55 216.234 1547.86 216.234C1545.99 216.234 1544.49 216.815 1543.37 217.976C1542.24 219.137 1541.68 220.878 1541.68 223.2V238.368H1534.43V210.279H1541.68V213.425C1543.44 210.803 1546.23 209.493 1550.05 209.493ZM1574.44 237.694C1573.51 238.63 1572.38 239.098 1571.07 239.098C1569.76 239.098 1568.64 238.63 1567.7 237.694C1566.76 236.758 1566.3 235.634 1566.3 234.323C1566.3 233.013 1566.76 231.889 1567.7 230.953C1568.64 230.016 1569.76 229.548 1571.07 229.548C1572.38 229.548 1573.51 230.016 1574.44 230.953C1575.38 231.889 1575.85 233.013 1575.85 234.323C1575.85 235.634 1575.38 236.758 1574.44 237.694ZM1591.44 198.987L1587.23 214.605H1581.33L1583.58 198.987H1591.44ZM1601.83 198.987L1597.62 214.605H1591.72L1593.97 198.987H1601.83Z" fill="#044810"/>
<path d="M1546.92 63.252C1576.47 63.2522 1590.74 77.4831 1590.74 100.814V148.306H1561.19V132.266C1562.54 129.127 1563.51 126.06 1564.12 123.427C1538.94 167.051 1515.17 140.529 1527.9 134.103C1559.11 140.756 1559.54 121.17 1561.83 104.623C1548.69 109.16 1515.28 106.127 1523.23 128.81C1533.41 119.737 1540.2 118.603 1549.53 117.091C1508.81 132.59 1521.96 147.332 1525.35 149.602C1525.58 149.718 1525.81 149.83 1526.04 149.938C1507.89 149.477 1497.73 140.962 1497.73 127.125C1497.73 126.274 1497.77 125.44 1497.86 124.625C1501.93 95.9745 1548.99 111.036 1560.09 81.3105C1545.44 83.6394 1527.02 77.587 1523.71 93.8828C1527.49 91.0891 1536.47 95.25 1550.17 89.2266C1526.04 104.578 1519.14 91.9244 1499.45 100.036L1499.43 99.9873H1499.41V99.6572C1499.41 77.4838 1518.21 63.252 1546.92 63.252Z" fill="#044810"/>
<path d="M856.836 59.5303C887.568 59.5305 902.411 74.2367 902.411 98.3477V147.426H871.678V130.84C873.073 127.599 874.084 124.433 874.721 121.714C848.528 166.796 823.811 139.388 837.045 132.746C869.513 139.622 869.959 119.382 872.34 102.282C858.666 106.97 823.924 103.836 832.193 127.276C842.783 117.901 849.839 116.729 859.541 115.166C817.194 131.183 830.87 146.42 834.399 148.764C834.641 148.884 834.882 149 835.121 149.113C816.238 148.637 805.672 139.836 805.672 125.537C805.672 124.643 805.72 123.768 805.813 122.913C810.08 93.3501 858.996 108.892 870.531 78.1846C855.299 80.5914 836.136 74.3363 832.696 91.1768C836.627 88.2897 845.964 92.59 860.213 86.3652C835.121 102.23 827.943 89.1526 807.458 97.5371L807.445 97.4922H807.418V97.1504C807.418 74.2363 826.977 59.5303 856.836 59.5303Z" fill="#98D300"/>
<defs>
<linearGradient id="paint0_linear_804_1217" x1="141.404" y1="19.6025" x2="141.404" y2="118.731" gradientUnits="userSpaceOnUse">
<stop stop-color="#B7F123"/>
<stop offset="1" stop-color="#3A935C"/>
</linearGradient>
<linearGradient id="paint1_linear_804_1217" x1="86.6713" y1="62.7674" x2="106.339" y2="122.511" gradientUnits="userSpaceOnUse">
<stop stop-color="#B7F123"/>
<stop offset="1" stop-color="#028219"/>
</linearGradient>
<linearGradient id="paint2_linear_804_1217" x1="115.121" y1="102.668" x2="115.121" y2="240.847" gradientUnits="userSpaceOnUse">
<stop stop-color="#98D300"/>
<stop offset="1" stop-color="#044810"/>
</linearGradient>
<linearGradient id="paint3_linear_804_1217" x1="115.121" y1="102.668" x2="115.121" y2="240.847" gradientUnits="userSpaceOnUse">
<stop stop-color="#98D300"/>
<stop offset="1" stop-color="#044810"/>
</linearGradient>
</defs>
</svg>
