<svg width="124" height="24" viewBox="0 0 124 24" fill="none" xmlns="http://www.w3.org/2000/svg">
<path d="M6.94957 14H1.69507V3.615H6.94957C10.3751 3.615 12.5451 5.5215 12.5451 8.8075C12.5451 12.0935 10.3751 14 6.94957 14ZM6.94957 6.2345H4.60907V11.3805H6.94957C8.79407 11.3805 9.42957 11.148 9.42957 8.8075C9.42957 6.467 8.79407 6.2345 6.94957 6.2345ZM16.2301 5.475H13.3161V3.615H16.2301V5.475ZM16.2301 14H13.3161V6.188H16.2301V14ZM21.5163 14.155C18.8658 14.155 17.0058 13.0235 17.0058 10.094C17.0058 7.552 18.8503 6.033 21.4543 6.033C24.1513 6.033 25.8718 7.3815 25.8718 9.8925C25.8718 10.156 25.8563 10.3575 25.8253 10.6365H19.7028C19.7493 11.582 20.1678 11.8455 21.4078 11.8455C22.5858 11.8455 22.8958 11.644 22.8958 11.179V11.0085H25.8098V11.1945C25.8098 12.9305 24.1513 14.155 21.5163 14.155ZM21.3923 8.265C20.3228 8.265 19.8733 8.4975 19.7493 9.164H23.0508C22.9423 8.4975 22.4773 8.265 21.3923 8.265ZM32.495 14H30.449C28.496 14 27.3335 13.0545 27.3335 11.024V8.575H26.1865V6.188H27.3335V4.8395H30.2475V6.188H32.495V8.575H30.2475V10.6055C30.2475 11.2255 30.4335 11.3805 31.1 11.3805H32.495V14ZM36.1046 5.475H33.1906V3.615H36.1046V5.475ZM36.1046 14H33.1906V6.188H36.1046V14ZM41.4218 14.155C38.6473 14.155 36.8803 12.6205 36.8803 10.094C36.8803 7.552 38.6473 6.033 41.4218 6.033C44.0878 6.033 45.7928 7.397 45.7928 9.4895V9.7375H42.8943V9.6135C42.8943 8.8075 42.3053 8.637 41.3598 8.637C40.2903 8.637 39.7788 8.8695 39.7788 10.094C39.7788 11.303 40.2903 11.5355 41.3598 11.5355C42.3053 11.5355 42.8943 11.3805 42.8943 10.5745V10.435H45.7928V10.6985C45.7928 12.7755 44.0878 14.155 41.4218 14.155ZM49.4854 5.475H46.5714V3.615H49.4854V5.475ZM49.4854 14H46.5714V6.188H49.4854V14ZM62.5484 14H59.6344V6.188H62.3624V8.5595H62.5174C62.6879 7.2575 63.5404 6.033 65.6329 6.033C67.7409 6.033 68.7329 7.304 68.7329 8.9935V14H65.8189V10.063C65.8189 8.978 65.4159 8.637 64.1449 8.637C62.8584 8.637 62.5484 8.9625 62.5484 9.97V14Z" fill="#98D300"/>
<path d="M72.5084 14H69.5944V3.615H73.5469L75.4534 7.924L76.4764 10.6055H76.6779L77.6544 7.924L79.4679 3.615H83.4204V14H80.5064V9.7065L80.6149 7.9705H80.4134L79.8244 9.7065L78.2744 13.38H74.7404L73.1904 9.7065L72.6014 7.9705H72.3999L72.5084 9.7065V14ZM88.7082 14.155C86.0577 14.155 84.1977 13.0235 84.1977 10.094C84.1977 7.552 86.0422 6.033 88.6462 6.033C91.3432 6.033 93.0637 7.3815 93.0637 9.8925C93.0637 10.156 93.0482 10.3575 93.0172 10.6365H86.8947C86.9412 11.582 87.3597 11.8455 88.5997 11.8455C89.7777 11.8455 90.0877 11.644 90.0877 11.179V11.0085H93.0017V11.1945C93.0017 12.9305 91.3432 14.155 88.7082 14.155ZM88.5842 8.265C87.5147 8.265 87.0652 8.4975 86.9412 9.164H90.2427C90.1342 8.4975 89.6692 8.265 88.5842 8.265ZM97.3154 13.132C94.9904 13.132 93.6884 11.799 93.6884 9.567C93.6884 7.366 95.0834 6.033 97.3929 6.033C98.9739 6.033 100.028 6.6685 100.245 8.017H100.4V6.188H103.128V12.6825C103.128 15.4725 101.469 16.79 98.4624 16.79C95.7344 16.79 94.1534 15.643 94.1534 13.597H97.0674C97.0674 14.2325 97.1449 14.3875 98.6639 14.3875C99.9194 14.3875 100.214 14.2015 100.214 12.884V11.241H100.059C99.8574 12.3725 99.0359 13.132 97.3154 13.132ZM96.6334 9.567C96.6334 10.342 97.0054 10.6365 98.3694 10.6365C99.6714 10.6365 100.214 10.4815 100.214 9.66V9.5515C100.214 8.7145 99.6714 8.544 98.3694 8.544C97.0054 8.544 96.6334 8.8075 96.6334 9.567ZM106.975 14H104.061V3.615H106.975V8.5595H107.13C107.378 7.242 108.246 6.033 110.245 6.033C112.322 6.033 113.314 7.3505 113.314 9.0865V14H110.4V10.063C110.4 8.978 109.982 8.637 108.649 8.637C107.3 8.637 106.975 8.9625 106.975 9.97V14Z" fill="#044810"/>
<path d="M3.51251 18.2808H4.22551V21.8975H3.68301L2.13301 19.6861V21.8975H1.42001V18.2808H1.96251L3.51251 20.487V18.2808ZM6.57041 19.3141H7.23691V21.8975H6.57041V21.6081C6.40852 21.8492 6.15191 21.9698 5.80057 21.9698C5.51813 21.9698 5.28391 21.8751 5.09791 21.6856C4.91535 21.4962 4.82407 21.2344 4.82407 20.9003V19.3141H5.49057V20.8176C5.49057 20.9898 5.53707 21.1225 5.63007 21.2155C5.72307 21.305 5.84707 21.3498 6.00207 21.3498C6.1743 21.3498 6.31207 21.2964 6.41541 21.1896C6.51874 21.0828 6.57041 20.9227 6.57041 20.7091V19.3141ZM9.32501 19.9548H8.74117V21.0295C8.74117 21.119 8.76356 21.1845 8.80834 21.2258C8.85312 21.2671 8.91856 21.2912 9.00467 21.2981C9.09079 21.3016 9.19756 21.2998 9.32501 21.293V21.8975C8.8669 21.9491 8.54312 21.9061 8.35367 21.7683C8.16767 21.6305 8.07467 21.3842 8.07467 21.0295V19.9548H7.62517V19.3141H8.07467V18.7923L8.74117 18.5908V19.3141H9.32501V19.9548ZM10.5018 19.7585C10.5638 19.5931 10.6654 19.4691 10.8066 19.3865C10.9513 19.3038 11.1115 19.2625 11.2871 19.2625V20.0065C11.0839 19.9823 10.9014 20.0237 10.7395 20.1305C10.581 20.2372 10.5018 20.4146 10.5018 20.6626V21.8975H9.8353V19.3141H10.5018V19.7585ZM12.0076 19.0041C11.8974 19.0041 11.8009 18.9645 11.7183 18.8853C11.639 18.8026 11.5994 18.7062 11.5994 18.596C11.5994 18.4857 11.639 18.3893 11.7183 18.3066C11.8009 18.224 11.8974 18.1826 12.0076 18.1826C12.1213 18.1826 12.2177 18.224 12.2969 18.3066C12.3796 18.3893 12.4209 18.4857 12.4209 18.596C12.4209 18.7062 12.3796 18.8026 12.2969 18.8853C12.2177 18.9645 12.1213 19.0041 12.0076 19.0041ZM11.6769 21.8975V19.3141H12.3434V21.8975H11.6769ZM14.3898 19.2418C14.6722 19.2418 14.9047 19.3365 15.0873 19.526C15.2733 19.7154 15.3663 19.9772 15.3663 20.3113V21.8975H14.6998V20.394C14.6998 20.2217 14.6533 20.0908 14.5603 20.0013C14.4673 19.9083 14.3433 19.8618 14.1883 19.8618C14.0161 19.8618 13.8783 19.9152 13.775 20.022C13.6716 20.1287 13.62 20.2889 13.62 20.5025V21.8975H12.9535V18.2808H13.62V19.6035C13.7819 19.3623 14.0385 19.2418 14.3898 19.2418ZM17.6404 19.3141H18.3069V21.8975H17.6404V21.6081C17.4785 21.8492 17.2219 21.9698 16.8706 21.9698C16.5881 21.9698 16.3539 21.8751 16.1679 21.6856C15.9853 21.4962 15.8941 21.2344 15.8941 20.9003V19.3141H16.5606V20.8176C16.5606 20.9898 16.6071 21.1225 16.7001 21.2155C16.7931 21.305 16.9171 21.3498 17.0721 21.3498C17.2443 21.3498 17.3821 21.2964 17.4854 21.1896C17.5887 21.0828 17.6404 20.9227 17.6404 20.7091V19.3141ZM20.4208 19.2418C20.7687 19.2418 21.0649 19.3744 21.3095 19.6396C21.5575 19.9014 21.6815 20.2235 21.6815 20.6058C21.6815 20.9881 21.5575 21.3119 21.3095 21.5771C21.0649 21.8389 20.7687 21.9698 20.4208 21.9698C20.0592 21.9698 19.7802 21.8441 19.5838 21.5926V21.8975H18.9173V18.2808H19.5838V19.619C19.7802 19.3675 20.0592 19.2418 20.4208 19.2418ZM19.7853 21.1328C19.9197 21.2671 20.0902 21.3343 20.2968 21.3343C20.5035 21.3343 20.674 21.2671 20.8083 21.1328C20.9461 20.995 21.015 20.8193 21.015 20.6058C21.015 20.3922 20.9461 20.2183 20.8083 20.084C20.674 19.9462 20.5035 19.8773 20.2968 19.8773C20.0902 19.8773 19.9197 19.9462 19.7853 20.084C19.651 20.2183 19.5838 20.3922 19.5838 20.6058C19.5838 20.8193 19.651 20.995 19.7853 21.1328ZM22.1825 20.6575V20.0168H24.12V20.6575H22.1825ZM24.7084 19.7171L25.0959 18.2808H25.6384L25.4318 19.7171H24.7084ZM25.6643 19.7171L26.0518 18.2808H26.5943L26.3876 19.7171H25.6643ZM30.045 18.2808L28.805 20.487V21.8975H28.0972V20.487L26.8624 18.2808H27.6684L28.4537 19.7895L29.239 18.2808H30.045ZM32.047 21.5771C31.7818 21.8389 31.458 21.9698 31.0757 21.9698C30.6934 21.9698 30.3696 21.8389 30.1044 21.5771C29.8426 21.3119 29.7117 20.9881 29.7117 20.6058C29.7117 20.2235 29.8426 19.9014 30.1044 19.6396C30.3696 19.3744 30.6934 19.2418 31.0757 19.2418C31.458 19.2418 31.7818 19.3744 32.047 19.6396C32.3123 19.9014 32.4449 20.2235 32.4449 20.6058C32.4449 20.9881 32.3123 21.3119 32.047 21.5771ZM30.5745 21.1173C30.7089 21.2516 30.8759 21.3188 31.0757 21.3188C31.2755 21.3188 31.4425 21.2516 31.5769 21.1173C31.7112 20.983 31.7784 20.8125 31.7784 20.6058C31.7784 20.3991 31.7112 20.2286 31.5769 20.0943C31.4425 19.96 31.2755 19.8928 31.0757 19.8928C30.8759 19.8928 30.7089 19.96 30.5745 20.0943C30.4437 20.2286 30.3782 20.3991 30.3782 20.6058C30.3782 20.8125 30.4437 20.983 30.5745 21.1173ZM34.6187 19.3141H35.2852V21.8975H34.6187V21.6081C34.4569 21.8492 34.2002 21.9698 33.8489 21.9698C33.5665 21.9698 33.3322 21.8751 33.1462 21.6856C32.9637 21.4962 32.8724 21.2344 32.8724 20.9003V19.3141H33.5389V20.8176C33.5389 20.9898 33.5854 21.1225 33.6784 21.2155C33.7714 21.305 33.8954 21.3498 34.0504 21.3498C34.2226 21.3498 34.3604 21.2964 34.4637 21.1896C34.5671 21.0828 34.6187 20.9227 34.6187 20.7091V19.3141ZM36.5622 19.7585C36.6242 19.5931 36.7258 19.4691 36.867 19.3865C37.0117 19.3038 37.1718 19.2625 37.3475 19.2625V20.0065C37.1443 19.9823 36.9617 20.0237 36.7998 20.1305C36.6414 20.2372 36.5622 20.4146 36.5622 20.6626V21.8975H35.8957V19.3141H36.5622V19.7585ZM41.4521 18.2808V18.9628H40.4756V21.8975H39.7626V18.9628H38.7913V18.2808H41.4521ZM42.1577 19.7585C42.2197 19.5931 42.3213 19.4691 42.4626 19.3865C42.6072 19.3038 42.7674 19.2625 42.9431 19.2625V20.0065C42.7398 19.9823 42.5573 20.0237 42.3954 20.1305C42.2369 20.2372 42.1577 20.4146 42.1577 20.6626V21.8975H41.4912V19.3141H42.1577V19.7585ZM45.0379 19.3141H45.7044V21.8975H45.0379V21.6081C44.876 21.8492 44.6194 21.9698 44.268 21.9698C43.9856 21.9698 43.7514 21.8751 43.5654 21.6856C43.3828 21.4962 43.2915 21.2344 43.2915 20.9003V19.3141H43.958V20.8176C43.958 20.9898 44.0045 21.1225 44.0975 21.2155C44.1905 21.305 44.3145 21.3498 44.4695 21.3498C44.6417 21.3498 44.7795 21.2964 44.8829 21.1896C44.9862 21.0828 45.0379 20.9227 45.0379 20.7091V19.3141ZM46.9094 20.0478C46.9094 20.1167 46.9542 20.1735 47.0438 20.2183C47.1368 20.2596 47.2487 20.2975 47.3796 20.332C47.5105 20.363 47.6414 20.4043 47.7723 20.456C47.9032 20.5042 48.0134 20.5868 48.1029 20.704C48.1959 20.8211 48.2424 20.9675 48.2424 21.1431C48.2424 21.4083 48.1426 21.6133 47.9428 21.758C47.7464 21.8992 47.5002 21.9698 47.2039 21.9698C46.6735 21.9698 46.3118 21.7648 46.1189 21.355L46.6976 21.0295C46.7734 21.2533 46.9422 21.3653 47.2039 21.3653C47.4416 21.3653 47.5604 21.2912 47.5604 21.1431C47.5604 21.0742 47.5139 21.0191 47.4209 20.9778C47.3314 20.933 47.2212 20.8934 47.0903 20.859C46.9594 20.8245 46.8285 20.7815 46.6976 20.7298C46.5667 20.6781 46.4548 20.5972 46.3618 20.487C46.2722 20.3733 46.2274 20.2321 46.2274 20.0633C46.2274 19.8084 46.3204 19.6086 46.5064 19.464C46.6959 19.3158 46.9301 19.2418 47.2091 19.2418C47.4192 19.2418 47.6104 19.29 47.7826 19.3865C47.9548 19.4795 48.0909 19.6138 48.1908 19.7895L47.6224 20.0995C47.5398 19.9238 47.402 19.836 47.2091 19.836C47.123 19.836 47.0507 19.8549 46.9921 19.8928C46.937 19.9307 46.9094 19.9823 46.9094 20.0478ZM50.0731 19.9548H49.4892V21.0295C49.4892 21.119 49.5116 21.1845 49.5564 21.2258C49.6012 21.2671 49.6666 21.2912 49.7527 21.2981C49.8388 21.3016 49.9456 21.2998 50.0731 21.293V21.8975C49.6149 21.9491 49.2912 21.9061 49.1017 21.7683C48.9157 21.6305 48.8227 21.3842 48.8227 21.0295V19.9548H48.3732V19.3141H48.8227V18.7923L49.4892 18.5908V19.3141H50.0731V19.9548ZM51.0254 20.8796C51.115 21.2034 51.3578 21.3653 51.7539 21.3653C52.0088 21.3653 52.2017 21.2792 52.3326 21.107L52.8699 21.417C52.615 21.7855 52.2396 21.9698 51.7436 21.9698C51.3165 21.9698 50.9738 21.8406 50.7154 21.5823C50.4571 21.324 50.3279 20.9985 50.3279 20.6058C50.3279 20.2166 50.4554 19.8928 50.7103 19.6345C50.9651 19.3727 51.2924 19.2418 51.6919 19.2418C52.0708 19.2418 52.3825 19.3727 52.6271 19.6345C52.8751 19.8962 52.9991 20.22 52.9991 20.6058C52.9991 20.6919 52.9905 20.7832 52.9733 20.8796H51.0254ZM51.0151 20.363H52.3326C52.2947 20.1873 52.2155 20.0564 52.0949 19.9703C51.9778 19.8842 51.8435 19.8411 51.6919 19.8411C51.5128 19.8411 51.3647 19.8876 51.2476 19.9806C51.1305 20.0702 51.053 20.1976 51.0151 20.363ZM55.4024 18.2808H56.0689V21.8975H55.4024V21.5926C55.206 21.8441 54.927 21.9698 54.5654 21.9698C54.2175 21.9698 53.9195 21.8389 53.6715 21.5771C53.427 21.3119 53.3047 20.9881 53.3047 20.6058C53.3047 20.2235 53.427 19.9014 53.6715 19.6396C53.9195 19.3744 54.2175 19.2418 54.5654 19.2418C54.927 19.2418 55.206 19.3675 55.4024 19.619V18.2808ZM54.1727 21.1328C54.3105 21.2671 54.4827 21.3343 54.6894 21.3343C54.896 21.3343 55.0665 21.2671 55.2009 21.1328C55.3352 20.995 55.4024 20.8193 55.4024 20.6058C55.4024 20.3922 55.3352 20.2183 55.2009 20.084C55.0665 19.9462 54.896 19.8773 54.6894 19.8773C54.4827 19.8773 54.3105 19.9462 54.1727 20.084C54.0384 20.2183 53.9712 20.3922 53.9712 20.6058C53.9712 20.8193 54.0384 20.995 54.1727 21.1328ZM61.5506 19.9548V20.2338C61.5506 20.7505 61.3852 21.169 61.0546 21.4893C60.7239 21.8096 60.2968 21.9698 59.7732 21.9698C59.2152 21.9698 58.752 21.789 58.3834 21.4273C58.0183 21.0622 57.8357 20.6178 57.8357 20.0943C57.8357 19.5673 58.0166 19.1212 58.3782 18.7561C58.7433 18.391 59.1946 18.2085 59.7319 18.2085C60.0695 18.2085 60.3777 18.286 60.6567 18.441C60.9357 18.5925 61.1527 18.7957 61.3077 19.0506L60.6981 19.402C60.612 19.2538 60.4811 19.1333 60.3054 19.0403C60.1332 18.9473 59.9403 18.9008 59.7267 18.9008C59.3823 18.9008 59.0981 19.0145 58.8742 19.2418C58.6538 19.4657 58.5436 19.7498 58.5436 20.0943C58.5436 20.4353 58.6555 20.7177 58.8794 20.9416C59.1067 21.1621 59.4064 21.2723 59.7784 21.2723C60.054 21.2723 60.2813 21.212 60.4604 21.0915C60.643 20.9675 60.767 20.7987 60.8324 20.5851H59.7371V19.9548H61.5506ZM63.7569 19.3141H64.4234V21.8975H63.7569V21.6081C63.595 21.8492 63.3384 21.9698 62.9871 21.9698C62.7047 21.9698 62.4704 21.8751 62.2844 21.6856C62.1019 21.4962 62.0106 21.2344 62.0106 20.9003V19.3141H62.6771V20.8176C62.6771 20.9898 62.7236 21.1225 62.8166 21.2155C62.9096 21.305 63.0336 21.3498 63.1886 21.3498C63.3608 21.3498 63.4986 21.2964 63.6019 21.1896C63.7053 21.0828 63.7569 20.9227 63.7569 20.7091V19.3141ZM65.3645 19.0041C65.2543 19.0041 65.1579 18.9645 65.0752 18.8853C64.996 18.8026 64.9564 18.7062 64.9564 18.596C64.9564 18.4857 64.996 18.3893 65.0752 18.3066C65.1579 18.224 65.2543 18.1826 65.3645 18.1826C65.4782 18.1826 65.5746 18.224 65.6539 18.3066C65.7365 18.3893 65.7779 18.4857 65.7779 18.596C65.7779 18.7062 65.7365 18.8026 65.6539 18.8853C65.5746 18.9645 65.4782 19.0041 65.3645 19.0041ZM65.0339 21.8975V19.3141H65.7004V21.8975H65.0339ZM68.2686 18.2808H68.9351V21.8975H68.2686V21.5926C68.0722 21.8441 67.7932 21.9698 67.4316 21.9698C67.0837 21.9698 66.7857 21.8389 66.5377 21.5771C66.2932 21.3119 66.1709 20.9881 66.1709 20.6058C66.1709 20.2235 66.2932 19.9014 66.5377 19.6396C66.7857 19.3744 67.0837 19.2418 67.4316 19.2418C67.7932 19.2418 68.0722 19.3675 68.2686 19.619V18.2808ZM67.0389 21.1328C67.1767 21.2671 67.3489 21.3343 67.5556 21.3343C67.7622 21.3343 67.9327 21.2671 68.0671 21.1328C68.2014 20.995 68.2686 20.8193 68.2686 20.6058C68.2686 20.3922 68.2014 20.2183 68.0671 20.084C67.9327 19.9462 67.7622 19.8773 67.5556 19.8773C67.3489 19.8773 67.1767 19.9462 67.0389 20.084C66.9046 20.2183 66.8374 20.3922 66.8374 20.6058C66.8374 20.8193 66.9046 20.995 67.0389 21.1328ZM70.1078 20.8796C70.1973 21.2034 70.4402 21.3653 70.8363 21.3653C71.0912 21.3653 71.284 21.2792 71.4149 21.107L71.9523 21.417C71.6974 21.7855 71.3219 21.9698 70.8259 21.9698C70.3988 21.9698 70.0561 21.8406 69.7978 21.5823C69.5394 21.324 69.4103 20.9985 69.4103 20.6058C69.4103 20.2166 69.5377 19.8928 69.7926 19.6345C70.0475 19.3727 70.3747 19.2418 70.7743 19.2418C71.1532 19.2418 71.4649 19.3727 71.7094 19.6345C71.9574 19.8962 72.0814 20.22 72.0814 20.6058C72.0814 20.6919 72.0728 20.7832 72.0556 20.8796H70.1078ZM70.0974 20.363H71.4149C71.377 20.1873 71.2978 20.0564 71.1773 19.9703C71.0602 19.8842 70.9258 19.8411 70.7743 19.8411C70.5952 19.8411 70.447 19.8876 70.3299 19.9806C70.2128 20.0702 70.1353 20.1976 70.0974 20.363ZM76.2616 18.2808V18.9628H75.2851V21.8975H74.5721V18.9628H73.6007V18.2808H76.2616ZM78.3603 21.5771C78.0951 21.8389 77.7713 21.9698 77.389 21.9698C77.0067 21.9698 76.6829 21.8389 76.4177 21.5771C76.1559 21.3119 76.025 20.9881 76.025 20.6058C76.025 20.2235 76.1559 19.9014 76.4177 19.6396C76.6829 19.3744 77.0067 19.2418 77.389 19.2418C77.7713 19.2418 78.0951 19.3744 78.3603 19.6396C78.6256 19.9014 78.7582 20.2235 78.7582 20.6058C78.7582 20.9881 78.6256 21.3119 78.3603 21.5771ZM76.8878 21.1173C77.0222 21.2516 77.1892 21.3188 77.389 21.3188C77.5888 21.3188 77.7558 21.2516 77.8902 21.1173C78.0245 20.983 78.0917 20.8125 78.0917 20.6058C78.0917 20.3991 78.0245 20.2286 77.8902 20.0943C77.7558 19.96 77.5888 19.8928 77.389 19.8928C77.1892 19.8928 77.0222 19.96 76.8878 20.0943C76.757 20.2286 76.6915 20.3991 76.6915 20.6058C76.6915 20.8125 76.757 20.983 76.8878 21.1173ZM84.0889 18.2808V21.8975H83.3811V19.5518L82.3632 21.231H82.2806L81.2627 19.557V21.8975H80.5497V18.2808H81.2834L82.3219 19.991L83.3552 18.2808H84.0889ZM85.0624 19.0041C84.9522 19.0041 84.8558 18.9645 84.7731 18.8853C84.6939 18.8026 84.6543 18.7062 84.6543 18.596C84.6543 18.4857 84.6939 18.3893 84.7731 18.3066C84.8558 18.224 84.9522 18.1826 85.0624 18.1826C85.1761 18.1826 85.2726 18.224 85.3518 18.3066C85.4344 18.3893 85.4758 18.4857 85.4758 18.596C85.4758 18.7062 85.4344 18.8026 85.3518 18.8853C85.2726 18.9645 85.1761 19.0041 85.0624 19.0041ZM84.7318 21.8975V19.3141H85.3983V21.8975H84.7318ZM87.4446 19.2418C87.7271 19.2418 87.9596 19.3365 88.1421 19.526C88.3281 19.7154 88.4211 19.9772 88.4211 20.3113V21.8975H87.7546V20.394C87.7546 20.2217 87.7081 20.0908 87.6151 20.0013C87.5221 19.9083 87.3981 19.8618 87.2431 19.8618C87.0709 19.8618 86.9331 19.9152 86.8298 20.022C86.7265 20.1287 86.6748 20.2889 86.6748 20.5025V21.8975H86.0083V19.3141H86.6748V19.6035C86.8367 19.3623 87.0933 19.2418 87.4446 19.2418ZM90.9484 18.2808H91.6149V21.8975H90.9484V21.5926C90.7521 21.8441 90.4731 21.9698 90.1114 21.9698C89.7635 21.9698 89.4656 21.8389 89.2176 21.5771C88.973 21.3119 88.8507 20.9881 88.8507 20.6058C88.8507 20.2235 88.973 19.9014 89.2176 19.6396C89.4656 19.3744 89.7635 19.2418 90.1114 19.2418C90.4731 19.2418 90.7521 19.3675 90.9484 19.619V18.2808ZM89.7187 21.1328C89.8565 21.2671 90.0287 21.3343 90.2354 21.3343C90.4421 21.3343 90.6126 21.2671 90.7469 21.1328C90.8812 20.995 90.9484 20.8193 90.9484 20.6058C90.9484 20.3922 90.8812 20.2183 90.7469 20.084C90.6126 19.9462 90.4421 19.8773 90.2354 19.8773C90.0287 19.8773 89.8565 19.9462 89.7187 20.084C89.5844 20.2183 89.5172 20.3922 89.5172 20.6058C89.5172 20.8193 89.5844 20.995 89.7187 21.1328ZM93.6143 18.8491C93.2492 18.8216 93.0666 18.968 93.0666 19.2883V19.3141H93.6143V19.9548H93.0666V21.8975H92.4001V19.9548H92.0281V19.3141H92.4001V19.2883C92.4001 18.9232 92.5017 18.6459 92.705 18.4565C92.9082 18.267 93.2113 18.1843 93.6143 18.2085V18.8491ZM95.6248 19.3141H96.2913V21.8975H95.6248V21.6081C95.4629 21.8492 95.2063 21.9698 94.8549 21.9698C94.5725 21.9698 94.3383 21.8751 94.1523 21.6856C93.9697 21.4962 93.8784 21.2344 93.8784 20.9003V19.3141H94.5449V20.8176C94.5449 20.9898 94.5914 21.1225 94.6844 21.2155C94.7774 21.305 94.9014 21.3498 95.0564 21.3498C95.2287 21.3498 95.3664 21.2964 95.4698 21.1896C95.5731 21.0828 95.6248 20.9227 95.6248 20.7091V19.3141ZM96.9017 21.8975V18.1258H97.5682V21.8975H96.9017ZM101.593 18.2808H102.306V21.8975H101.764L100.214 19.6861V21.8975H99.5009V18.2808H100.043L101.593 20.487V18.2808ZM104.651 19.3141H105.318V21.8975H104.651V21.6081C104.489 21.8492 104.233 21.9698 103.881 21.9698C103.599 21.9698 103.365 21.8751 103.179 21.6856C102.996 21.4962 102.905 21.2344 102.905 20.9003V19.3141H103.571V20.8176C103.571 20.9898 103.618 21.1225 103.711 21.2155C103.804 21.305 103.928 21.3498 104.083 21.3498C104.255 21.3498 104.393 21.2964 104.496 21.1896C104.6 21.0828 104.651 20.9227 104.651 20.7091V19.3141ZM107.406 19.9548H106.822V21.0295C106.822 21.119 106.844 21.1845 106.889 21.2258C106.934 21.2671 106.999 21.2912 107.086 21.2981C107.172 21.3016 107.278 21.2998 107.406 21.293V21.8975C106.948 21.9491 106.624 21.9061 106.435 21.7683C106.249 21.6305 106.156 21.3842 106.156 21.0295V19.9548H105.706V19.3141H106.156V18.7923L106.822 18.5908V19.3141H107.406V19.9548ZM108.583 19.7585C108.645 19.5931 108.746 19.4691 108.888 19.3865C109.032 19.3038 109.192 19.2625 109.368 19.2625V20.0065C109.165 19.9823 108.982 20.0237 108.82 20.1305C108.662 20.2372 108.583 20.4146 108.583 20.6626V21.8975H107.916V19.3141H108.583V19.7585ZM110.088 19.0041C109.978 19.0041 109.882 18.9645 109.799 18.8853C109.72 18.8026 109.68 18.7062 109.68 18.596C109.68 18.4857 109.72 18.3893 109.799 18.3066C109.882 18.224 109.978 18.1826 110.088 18.1826C110.202 18.1826 110.299 18.224 110.378 18.3066C110.46 18.3893 110.502 18.4857 110.502 18.596C110.502 18.7062 110.46 18.8026 110.378 18.8853C110.299 18.9645 110.202 19.0041 110.088 19.0041ZM109.758 21.8975V19.3141H110.424V21.8975H109.758ZM112.512 19.9548H111.928V21.0295C111.928 21.119 111.951 21.1845 111.995 21.2258C112.04 21.2671 112.106 21.2912 112.192 21.2981C112.278 21.3016 112.385 21.2998 112.512 21.293V21.8975C112.054 21.9491 111.73 21.9061 111.541 21.7683C111.355 21.6305 111.262 21.3842 111.262 21.0295V19.9548H110.812V19.3141H111.262V18.7923L111.928 18.5908V19.3141H112.512V19.9548ZM113.313 19.0041C113.202 19.0041 113.106 18.9645 113.023 18.8853C112.944 18.8026 112.904 18.7062 112.904 18.596C112.904 18.4857 112.944 18.3893 113.023 18.3066C113.106 18.224 113.202 18.1826 113.313 18.1826C113.426 18.1826 113.523 18.224 113.602 18.3066C113.685 18.3893 113.726 18.4857 113.726 18.596C113.726 18.7062 113.685 18.8026 113.602 18.8853C113.523 18.9645 113.426 19.0041 113.313 19.0041ZM112.982 21.8975V19.3141H113.648V21.8975H112.982ZM116.459 21.5771C116.194 21.8389 115.87 21.9698 115.488 21.9698C115.106 21.9698 114.782 21.8389 114.517 21.5771C114.255 21.3119 114.124 20.9881 114.124 20.6058C114.124 20.2235 114.255 19.9014 114.517 19.6396C114.782 19.3744 115.106 19.2418 115.488 19.2418C115.87 19.2418 116.194 19.3744 116.459 19.6396C116.725 19.9014 116.857 20.2235 116.857 20.6058C116.857 20.9881 116.725 21.3119 116.459 21.5771ZM114.987 21.1173C115.121 21.2516 115.288 21.3188 115.488 21.3188C115.688 21.3188 115.855 21.2516 115.989 21.1173C116.124 20.983 116.191 20.8125 116.191 20.6058C116.191 20.3991 116.124 20.2286 115.989 20.0943C115.855 19.96 115.688 19.8928 115.488 19.8928C115.288 19.8928 115.121 19.96 114.987 20.0943C114.856 20.2286 114.791 20.3991 114.791 20.6058C114.791 20.8125 114.856 20.983 114.987 21.1173ZM118.763 19.2418C119.045 19.2418 119.277 19.3365 119.46 19.526C119.646 19.7154 119.739 19.9772 119.739 20.3113V21.8975H119.073V20.394C119.073 20.2217 119.026 20.0908 118.933 20.0013C118.84 19.9083 118.716 19.8618 118.561 19.8618C118.389 19.8618 118.251 19.9152 118.148 20.022C118.044 20.1287 117.993 20.2889 117.993 20.5025V21.8975H117.326V19.3141H117.993V19.6035C118.155 19.3623 118.411 19.2418 118.763 19.2418ZM121.006 21.8355C120.92 21.9216 120.816 21.9646 120.696 21.9646C120.575 21.9646 120.472 21.9216 120.386 21.8355C120.3 21.7493 120.256 21.646 120.256 21.5255C120.256 21.4049 120.3 21.3016 120.386 21.2155C120.472 21.1293 120.575 21.0863 120.696 21.0863C120.816 21.0863 120.92 21.1293 121.006 21.2155C121.092 21.3016 121.135 21.4049 121.135 21.5255C121.135 21.646 121.092 21.7493 121.006 21.8355ZM122.569 18.2756L122.181 19.712H121.639L121.846 18.2756H122.569ZM123.525 18.2756L123.137 19.712H122.595L122.801 18.2756H123.525Z" fill="#044810"/>
<path d="M118.932 5.67578C121.678 5.67588 123.005 7.01835 123.005 9.21875V13.6973H120.258V12.1836C120.382 11.8882 120.474 11.6004 120.531 11.3525C118.19 15.467 115.981 12.9655 117.164 12.3594C120.065 12.9866 120.106 11.1396 120.318 9.5791C119.096 10.007 115.99 9.7211 116.729 11.8604C117.676 11.0048 118.307 10.8975 119.174 10.7549C115.39 12.2164 116.611 13.6071 116.927 13.8213C116.946 13.8313 116.967 13.8392 116.986 13.8486C115.301 13.8039 114.358 13.004 114.358 11.7002C114.358 11.636 114.361 11.5728 114.366 11.5107C114.701 8.74592 119.118 10.1983 120.155 7.37891C118.794 7.59851 117.082 7.02802 116.774 8.56445C117.126 8.30161 117.96 8.69384 119.233 8.12598C116.991 9.57371 116.349 8.37976 114.519 9.14453L114.518 9.14062H114.515V9.10938C114.515 7.01818 116.263 5.67578 118.932 5.67578Z" fill="#044810"/>
<path d="M54.5176 6.15332C57.2639 6.15346 58.5907 7.42637 58.5908 9.5127V13.7598H55.8438V12.3232C55.9683 12.043 56.0593 11.7693 56.1162 11.5342C53.7755 15.4353 51.567 13.0643 52.749 12.4893C55.6508 13.0843 55.6915 11.3324 55.9043 9.85254C54.6823 10.2582 51.5768 9.98746 52.3154 12.0156C53.2618 11.2043 53.8927 11.103 54.7598 10.9678C50.9766 12.3534 52.1967 13.6714 52.5127 13.875C52.5343 13.8854 52.5567 13.8945 52.5781 13.9043C50.8895 13.8635 49.9444 13.1039 49.9443 11.8662C49.9443 11.8057 49.947 11.746 49.9521 11.6875C50.2865 9.06537 54.7038 10.4428 55.7412 7.76953C54.3799 7.97781 52.6668 7.43618 52.3594 8.89355C52.7107 8.6437 53.5458 9.01623 54.8193 8.47754C52.5765 9.85063 51.9348 8.71828 50.1035 9.44434L50.1025 9.43945H50.1006V9.40918C50.1007 7.4263 51.849 6.15332 54.5176 6.15332Z" fill="#98D300"/>
</svg>
