<svg width="67" height="39" viewBox="0 0 67 39" fill="none" xmlns="http://www.w3.org/2000/svg">
<path d="M65.5461 2.93335C65.5093 1.2769 64.1367 -0.0360694 62.4802 0.000740528L35.4869 0.600592C33.8304 0.637402 32.5175 2.01006 32.5543 3.6665C32.5911 5.32295 33.9637 6.63592 35.6202 6.59911L59.6143 6.06591L60.1475 30.06C60.1843 31.7164 61.5569 33.0294 63.2134 32.9926C64.8698 32.9558 66.1828 31.5831 66.146 29.9267L65.5461 2.93335ZM23.6526 20.8018L22.7704 23.6691L23.6526 20.8018ZM2.04688 36L3.97928 38.2947L20.8939 24.0508L18.9615 21.7561L17.0291 19.4614L0.114468 33.7053L2.04688 36ZM23.6526 20.8018L22.7704 23.6691L36.7145 27.9596L37.5968 25.0923L38.479 22.2249L24.5349 17.9344L23.6526 20.8018ZM42.6804 23.7695L44.8483 25.8432L64.7148 5.07367L62.5469 3L60.3789 0.926332L40.5125 21.6958L42.6804 23.7695ZM37.5968 25.0923L36.7145 27.9596C39.6078 28.8499 42.7559 28.0307 44.8483 25.8432L42.6804 23.7695L40.5125 21.6958C39.9894 22.2427 39.2024 22.4475 38.479 22.2249L37.5968 25.0923ZM18.9615 21.7561L20.8939 24.0508C21.4139 23.613 22.1206 23.4692 22.7704 23.6691L23.6526 20.8018L24.5349 17.9344C21.936 17.1348 19.1089 17.7099 17.0291 19.4614L18.9615 21.7561Z" fill="#084210"/>
</svg>
